# This file uses millimeters as units for non-parametric coordinates.

mtllib character select move button.mtl
g default
v -0.009466 -0.023277 -0.014973
v -0.008110 -0.025645 -0.012699
v -0.011311 -0.025287 -0.012698
v 0.022250 0.012023 -0.012727
v 0.023583 0.009200 -0.012730
v 0.020465 0.009456 -0.014937
v -0.011310 -0.025304 0.002718
v -0.008110 -0.025662 0.002718
v -0.009465 -0.023299 0.004998
v 0.020466 0.009433 0.005034
v 0.023584 0.009182 0.002826
v 0.022251 0.012005 0.002829
v -0.026777 0.007368 0.002756
v -0.024052 0.007515 0.005033
v -0.025023 0.010068 0.002759
v -0.024052 0.007538 -0.014938
v -0.026777 0.007385 -0.012662
v -0.025024 0.010086 -0.012659
vt 0.451635 0.507113
vt 0.451635 0.475657
vt 0.606348 0.475657
vt 0.606348 0.507113
vt 0.428781 0.496458
vt 0.629202 0.496458
vt 0.451629 0.763631
vt 0.606354 0.763631
vt 0.819741 0.915865
vt 0.820434 0.475657
vt 0.975160 0.475657
vt 0.975854 0.915865
vt 0.797586 0.907675
vt 0.797586 0.493454
vt 0.998008 0.907675
vt 0.998008 0.493454
vt 0.819741 0.937999
vt 0.975854 0.937999
vt 0.027194 0.269046
vt 0.001992 0.258391
vt 0.258510 0.001872
vt 0.269130 0.027121
vt 0.289952 0.009324
vt 0.437618 0.441342
vt 0.009417 0.289847
vt 0.445753 0.471666
vt 0.467927 0.449531
vt 0.475782 0.215147
vt 0.500984 0.204492
vt 0.742921 0.446418
vt 0.732300 0.471666
vt 0.911408 0.032196
vt 0.763742 0.464214
vt 0.483208 0.183691
vt 0.919543 0.001872
vt 0.941717 0.024007
vt 0.391204 0.475657
vt 0.422645 0.475657
vt 0.422645 0.630382
vt 0.391204 0.630382
vt 0.636038 0.911993
vt 0.635338 0.475657
vt 0.791451 0.475657
vt 0.790751 0.911993
vn -0.605067 -0.285594 -0.743190
vn -0.605067 -0.285594 -0.743190
vn -0.605067 -0.285594 -0.743190
vn -0.605067 -0.285594 -0.743190
vn 0.489189 -0.446043 -0.749493
vn 0.489189 -0.446043 -0.749493
vn 0.489189 -0.446043 -0.749493
vn 0.489189 -0.446043 -0.749493
vn -0.111222 -0.993795 -0.001113
vn -0.111222 -0.993795 -0.001113
vn -0.111222 -0.993795 -0.001113
vn -0.111222 -0.993795 -0.001113
vn -0.028349 0.661989 -0.748977
vn -0.028349 0.661989 -0.748977
vn -0.028349 0.661989 -0.748977
vn -0.028349 0.661989 -0.748977
vn 0.904220 0.427066 0.000458
vn 0.904220 0.427066 0.000458
vn 0.904220 0.427066 0.000458
vn 0.904220 0.427066 0.000458
vn -0.605031 -0.287262 0.742575
vn -0.605031 -0.287262 0.742575
vn -0.605031 -0.287262 0.742575
vn -0.605031 -0.287262 0.742575
vn 0.489224 -0.447724 0.748467
vn 0.489224 -0.447724 0.748467
vn 0.489224 -0.447724 0.748467
vn 0.489224 -0.447724 0.748467
vn -0.028313 0.660306 0.750463
vn -0.028313 0.660306 0.750463
vn -0.028313 0.660306 0.750463
vn -0.028313 0.660306 0.750463
vn -0.838671 0.544638 0.000631
vn -0.838671 0.544638 0.000631
vn -0.838671 0.544638 0.000631
vn -0.838671 0.544638 0.000631
vn 0.739766 -0.672863 -0.000773
vn 0.739766 -0.672863 -0.000773
vn 0.739766 -0.672863 -0.000773
vn 0.739766 -0.672863 -0.000773
vn 0.000024 -0.001123 0.999999
vn 0.000024 -0.001123 0.999999
vn 0.000024 -0.001123 0.999999
vn -0.000024 0.001123 -0.999999
vn -0.000024 0.001123 -0.999999
vn -0.000024 0.001123 -0.999999
vn -0.040937 0.999161 0.001123
vn -0.040937 0.999161 0.001123
vn -0.040937 0.999161 0.001123
vn -0.040937 0.999161 0.001123
vn -0.903838 -0.427875 -0.000459
vn -0.903838 -0.427875 -0.000459
vn -0.903838 -0.427875 -0.000459
vn -0.903838 -0.427875 -0.000459
vn -0.080006 -0.713942 -0.695619
vn -0.080006 -0.713942 -0.695619
vn -0.080006 -0.713942 -0.695619
vn 0.570911 0.270523 -0.775163
vn 0.570911 0.270523 -0.775163
vn 0.570911 0.270522 -0.775163
vn -0.079973 -0.715502 0.694018
vn -0.079973 -0.715502 0.694018
vn -0.079973 -0.715502 0.694018
vn 0.570947 0.268782 0.775742
vn 0.570947 0.268782 0.775742
vn 0.570947 0.268782 0.775742
vn -0.602557 0.390533 0.695995
vn -0.602557 0.390533 0.695995
vn -0.602557 0.390533 0.695995
vn -0.602590 0.392095 -0.695087
vn -0.602590 0.392095 -0.695087
vn -0.602590 0.392095 -0.695087
s off
g pCube123
usemtl lambert85SG
f 1/19/1 3/20/2 17/21/3 16/22/4
f 2/25/5 1/19/6 6/24/7 5/26/8
f 3/1/9 2/2/10 8/3/11 7/4/12
f 4/9/13 6/13/14 16/14/15 18/10/16
f 5/17/17 4/9/18 12/12/19 11/18/20
f 7/28/21 9/29/22 14/30/23 13/31/24
f 9/29/25 8/34/26 11/35/27 10/32/28
f 10/15/29 12/12/30 15/11/31 14/16/32
f 13/37/33 15/38/34 18/39/35 17/40/36
f 2/41/37 5/42/38 11/43/39 8/44/40
f 9/29/41 10/32/42 14/30/43
f 16/22/44 6/24/45 1/19/46
f 4/9/47 18/10/48 15/11/49 12/12/50
f 17/7/51 3/1/52 7/4/53 13/8/54
f 1/5/55 2/2/56 3/1/57
f 4/27/58 5/26/59 6/24/60
f 7/4/61 8/3/62 9/6/63
f 10/32/64 11/35/65 12/36/66
f 13/31/67 14/30/68 15/33/69
f 16/22/70 17/21/71 18/23/72
