# This file uses meters as units for non-parametric coordinates.

mtllib level door 1 bars L.mtl
g default
v 0.116314 0.365837 1.268589
v 0.151669 0.380481 1.268589
v 0.187025 0.365837 1.268589
v 0.201669 0.330481 1.268589
v 0.187025 0.295126 1.268589
v 0.151669 0.280481 1.268589
v 0.116314 0.295126 1.268589
v 0.101669 0.330481 1.268589
v 0.116314 0.365837 0.268589
v 0.151669 0.380481 0.268589
v 0.187025 0.365837 0.268589
v 0.201669 0.330481 0.268589
v 0.187025 0.295126 0.268589
v 0.151669 0.280481 0.268589
v 0.116314 0.295126 0.268589
v 0.101669 0.330481 0.268589
v 0.151669 0.330481 1.268589
v 0.151669 0.330481 0.268589
v 0.116314 0.787527 1.268589
v 0.151669 0.802172 1.268589
v 0.187025 0.787527 1.268589
v 0.201669 0.752172 1.268589
v 0.187025 0.716817 1.268589
v 0.151669 0.702172 1.268589
v 0.116314 0.716817 1.268589
v 0.101669 0.752172 1.268589
v 0.116314 0.787527 0.268589
v 0.151669 0.802172 0.268589
v 0.187025 0.787527 0.268589
v 0.201669 0.752172 0.268589
v 0.187025 0.716817 0.268589
v 0.151669 0.702172 0.268589
v 0.116314 0.716817 0.268589
v 0.101669 0.752172 0.268589
v 0.151669 0.752172 1.268589
v 0.151669 0.752172 0.268589
v 0.116314 1.439525 1.268589
v 0.151669 1.454170 1.268589
v 0.187025 1.439525 1.268589
v 0.201669 1.404170 1.268589
v 0.187025 1.368814 1.268589
v 0.151669 1.354170 1.268589
v 0.116314 1.368814 1.268589
v 0.101669 1.404170 1.268589
v 0.116314 1.439525 0.268589
v 0.151669 1.454170 0.268589
v 0.187025 1.439525 0.268589
v 0.201669 1.404170 0.268589
v 0.187025 1.368814 0.268589
v 0.151669 1.354170 0.268589
v 0.116314 1.368814 0.268589
v 0.101669 1.404170 0.268589
v 0.151669 1.404170 1.268589
v 0.151669 1.404170 0.268589
v 0.116314 1.861216 1.268589
v 0.151669 1.875860 1.268589
v 0.187025 1.861216 1.268589
v 0.201669 1.825860 1.268589
v 0.187025 1.790505 1.268589
v 0.151669 1.775860 1.268589
v 0.116314 1.790505 1.268589
v 0.101669 1.825860 1.268589
v 0.116314 1.861216 0.268589
v 0.151669 1.875860 0.268589
v 0.187025 1.861216 0.268589
v 0.201669 1.825860 0.268589
v 0.187025 1.790505 0.268589
v 0.151669 1.775860 0.268589
v 0.116314 1.790505 0.268589
v 0.101669 1.825860 0.268589
v 0.151669 1.825860 1.268589
v 0.151669 1.825860 0.268589
vt 0.493006 0.529771
vt 0.496729 0.529771
vt 0.496729 0.635067
vt 0.493006 0.635067
vt 0.500452 0.529771
vt 0.500452 0.635067
vt 0.513560 0.635067
vt 0.509838 0.635067
vt 0.509838 0.529771
vt 0.513560 0.529771
vt 0.506115 0.635067
vt 0.506115 0.529771
vt 0.526669 0.635067
vt 0.522947 0.635067
vt 0.522947 0.529771
vt 0.526669 0.529771
vt 0.519224 0.635067
vt 0.519224 0.529771
vt 0.532332 0.529771
vt 0.536055 0.529771
vt 0.536055 0.635067
vt 0.532332 0.635067
vt 0.539778 0.529771
vt 0.539778 0.635067
vt 0.162280 0.929518
vt 0.157643 0.927597
vt 0.162280 0.922960
vt 0.166917 0.927597
vt 0.168838 0.922960
vt 0.166917 0.918323
vt 0.162280 0.916403
vt 0.157643 0.918323
vt 0.155722 0.922960
vt 0.138816 0.927597
vt 0.136896 0.922960
vt 0.143453 0.922960
vt 0.138816 0.918323
vt 0.143453 0.916403
vt 0.148090 0.918323
vt 0.150011 0.922960
vt 0.148090 0.927597
vt 0.143453 0.929518
vt 0.440571 0.529771
vt 0.444294 0.529771
vt 0.444294 0.635067
vt 0.440571 0.635067
vt 0.448016 0.529771
vt 0.448016 0.635067
vt 0.461125 0.635067
vt 0.457402 0.635067
vt 0.457402 0.529771
vt 0.461125 0.529771
vt 0.453680 0.635067
vt 0.453680 0.529771
vt 0.474234 0.635067
vt 0.470511 0.635067
vt 0.470511 0.529771
vt 0.474234 0.529771
vt 0.466789 0.635067
vt 0.466789 0.529771
vt 0.479897 0.529771
vt 0.483620 0.529771
vt 0.483620 0.635067
vt 0.479897 0.635067
vt 0.487343 0.529771
vt 0.487343 0.635067
vt 0.248068 0.809123
vt 0.244345 0.807581
vt 0.248068 0.803858
vt 0.251791 0.807581
vt 0.253333 0.803858
vt 0.251791 0.800136
vt 0.248068 0.798593
vt 0.244345 0.800136
vt 0.242803 0.803858
vt 0.176470 0.918323
vt 0.181107 0.916403
vt 0.181107 0.922960
vt 0.185744 0.918323
vt 0.187665 0.922960
vt 0.185744 0.927597
vt 0.181107 0.929518
vt 0.176470 0.927597
vt 0.174549 0.922960
vt 0.388136 0.524508
vt 0.391858 0.524508
vt 0.391858 0.629804
vt 0.388136 0.629804
vt 0.395581 0.524508
vt 0.395581 0.629804
vt 0.408690 0.629804
vt 0.404967 0.629804
vt 0.404967 0.524508
vt 0.408690 0.524508
vt 0.401244 0.629804
vt 0.401244 0.524508
vt 0.421799 0.635067
vt 0.418076 0.635067
vt 0.418076 0.529771
vt 0.421799 0.529771
vt 0.414353 0.635067
vt 0.414353 0.529771
vt 0.427462 0.529771
vt 0.431185 0.529771
vt 0.431185 0.635067
vt 0.427462 0.635067
vt 0.434908 0.529771
vt 0.434908 0.635067
vt 0.218761 0.929518
vt 0.214123 0.927597
vt 0.218761 0.922960
vt 0.223398 0.927597
vt 0.225318 0.922960
vt 0.223398 0.918323
vt 0.218761 0.916403
vt 0.214123 0.918323
vt 0.212203 0.922960
vt 0.195297 0.918323
vt 0.199934 0.916403
vt 0.199934 0.922960
vt 0.204571 0.918323
vt 0.206491 0.922960
vt 0.204571 0.927597
vt 0.199934 0.929518
vt 0.195297 0.927597
vt 0.193376 0.922960
vt 0.702747 0.524769
vt 0.706470 0.524769
vt 0.706470 0.630065
vt 0.702747 0.630065
vt 0.710193 0.524769
vt 0.710193 0.630065
vt 0.723301 0.624538
vt 0.719579 0.624538
vt 0.719579 0.519241
vt 0.723301 0.519241
vt 0.715856 0.624538
vt 0.715856 0.519241
vt 0.736410 0.624538
vt 0.732687 0.624538
vt 0.732687 0.519241
vt 0.736410 0.519241
vt 0.728965 0.624538
vt 0.728965 0.519241
vt 0.742073 0.519241
vt 0.745796 0.519241
vt 0.745796 0.624538
vt 0.742073 0.624538
vt 0.749519 0.519241
vt 0.749519 0.624538
vt 0.011666 0.981177
vt 0.007029 0.979256
vt 0.011666 0.974619
vt 0.016303 0.979256
vt 0.018224 0.974619
vt 0.016303 0.969982
vt 0.011666 0.968061
vt 0.007029 0.969982
vt 0.005108 0.974619
vt 0.003775 0.986813
vt 0.008412 0.984892
vt 0.008412 0.991450
vt 0.013049 0.986813
vt 0.014970 0.991450
vt 0.013049 0.996087
vt 0.008412 0.998008
vt 0.003775 0.996087
vt 0.001854 0.991450
vn -0.382685 0.923879 0.000000
vn -0.382685 0.923879 0.000000
vn -0.382685 0.923879 0.000000
vn -0.382685 0.923879 0.000000
vn 0.382680 0.923881 0.000000
vn 0.382680 0.923881 0.000000
vn 0.382680 0.923881 0.000000
vn 0.382680 0.923881 0.000000
vn 0.923880 0.382682 0.000000
vn 0.923880 0.382682 0.000000
vn 0.923880 0.382682 0.000000
vn 0.923880 0.382682 0.000000
vn 0.923880 -0.382683 -0.000000
vn 0.923880 -0.382683 -0.000000
vn 0.923880 -0.382683 -0.000000
vn 0.923880 -0.382683 -0.000000
vn 0.382681 -0.923880 -0.000000
vn 0.382681 -0.923880 -0.000000
vn 0.382681 -0.923880 -0.000000
vn 0.382681 -0.923880 -0.000000
vn -0.382686 -0.923879 -0.000000
vn -0.382686 -0.923879 -0.000000
vn -0.382686 -0.923879 -0.000000
vn -0.382686 -0.923879 -0.000000
vn -0.923878 -0.382688 0.000000
vn -0.923878 -0.382688 0.000000
vn -0.923878 -0.382688 0.000000
vn -0.923878 -0.382688 0.000000
vn -0.923878 0.382688 0.000000
vn -0.923878 0.382688 0.000000
vn -0.923878 0.382688 0.000000
vn -0.923878 0.382688 0.000000
vn 0.000002 0.000000 1.000000
vn 0.000000 0.000000 1.000000
vn 0.000000 0.000000 1.000000
vn 0.000002 0.000000 1.000000
vn 0.000000 0.000000 1.000000
vn 0.000000 0.000000 1.000000
vn -0.000002 0.000000 1.000000
vn -0.000002 0.000000 1.000000
vn 0.000000 0.000000 1.000000
vn 0.000001 0.000000 -1.000000
vn 0.000001 0.000000 -1.000000
vn 0.000000 0.000000 -1.000000
vn 0.000000 0.000000 -1.000000
vn 0.000000 0.000000 -1.000000
vn 0.000000 0.000000 -1.000000
vn 0.000000 0.000000 -1.000000
vn 0.000000 0.000000 -1.000000
vn 0.000000 0.000000 -1.000000
vn -0.382686 0.923878 -0.000000
vn -0.382686 0.923878 -0.000000
vn -0.382686 0.923878 -0.000000
vn -0.382686 0.923878 -0.000000
vn 0.382682 0.923880 -0.000000
vn 0.382682 0.923880 -0.000000
vn 0.382682 0.923880 -0.000000
vn 0.382682 0.923880 -0.000000
vn 0.923880 0.382682 0.000000
vn 0.923880 0.382682 0.000000
vn 0.923880 0.382682 0.000000
vn 0.923880 0.382682 0.000000
vn 0.923880 -0.382683 0.000000
vn 0.923880 -0.382683 0.000000
vn 0.923880 -0.382683 0.000000
vn 0.923880 -0.382683 0.000000
vn 0.382682 -0.923880 0.000000
vn 0.382682 -0.923880 0.000000
vn 0.382682 -0.923880 0.000000
vn 0.382682 -0.923880 0.000000
vn -0.382686 -0.923878 0.000000
vn -0.382686 -0.923878 0.000000
vn -0.382686 -0.923878 0.000000
vn -0.382686 -0.923878 0.000000
vn -0.923877 -0.382689 0.000000
vn -0.923877 -0.382689 0.000000
vn -0.923877 -0.382689 0.000000
vn -0.923877 -0.382689 0.000000
vn -0.923878 0.382687 0.000000
vn -0.923878 0.382687 0.000000
vn -0.923878 0.382687 0.000000
vn -0.923878 0.382687 0.000000
vn 0.000002 0.000000 1.000000
vn 0.000000 0.000000 1.000000
vn -0.000000 0.000000 1.000000
vn 0.000002 0.000000 1.000000
vn 0.000000 0.000000 1.000000
vn -0.000004 0.000000 1.000000
vn -0.000002 0.000000 1.000000
vn 0.000002 0.000000 1.000000
vn 0.000000 0.000000 1.000000
vn -0.000001 0.000000 -1.000000
vn 0.000000 0.000000 -1.000000
vn 0.000000 0.000000 -1.000000
vn 0.000001 0.000000 -1.000000
vn 0.000000 0.000000 -1.000000
vn 0.000000 0.000000 -1.000000
vn 0.000000 0.000000 -1.000000
vn 0.000000 0.000000 -1.000000
vn 0.000000 0.000000 -1.000000
vn -0.382686 0.923878 0.000000
vn -0.382686 0.923878 0.000000
vn -0.382686 0.923878 0.000000
vn -0.382686 0.923878 0.000000
vn 0.382682 0.923880 0.000000
vn 0.382682 0.923880 0.000000
vn 0.382682 0.923880 0.000000
vn 0.382682 0.923880 0.000000
vn 0.923880 0.382682 0.000000
vn 0.923880 0.382682 0.000000
vn 0.923880 0.382682 0.000000
vn 0.923880 0.382682 0.000000
vn 0.923880 -0.382683 0.000000
vn 0.923880 -0.382683 0.000000
vn 0.923880 -0.382683 0.000000
vn 0.923880 -0.382683 0.000000
vn 0.382680 -0.923881 0.000000
vn 0.382680 -0.923881 0.000000
vn 0.382680 -0.923881 0.000000
vn 0.382680 -0.923881 0.000000
vn -0.382685 -0.923879 0.000000
vn -0.382685 -0.923879 0.000000
vn -0.382685 -0.923879 0.000000
vn -0.382685 -0.923879 0.000000
vn -0.923878 -0.382688 0.000000
vn -0.923878 -0.382688 0.000000
vn -0.923878 -0.382688 0.000000
vn -0.923878 -0.382688 0.000000
vn -0.923878 0.382687 0.000000
vn -0.923878 0.382687 0.000000
vn -0.923878 0.382688 0.000000
vn -0.923878 0.382687 0.000000
vn 0.000002 0.000000 1.000000
vn 0.000000 0.000000 1.000000
vn -0.000000 0.000000 1.000000
vn 0.000002 0.000000 1.000000
vn 0.000000 0.000000 1.000000
vn -0.000004 0.000000 1.000000
vn -0.000002 0.000000 1.000000
vn 0.000002 0.000000 1.000000
vn 0.000000 0.000000 1.000000
vn 0.000001 0.000000 -1.000000
vn 0.000001 0.000000 -1.000000
vn -0.000000 0.000000 -1.000000
vn 0.000000 0.000000 -1.000000
vn 0.000000 0.000000 -1.000000
vn -0.000001 0.000000 -1.000000
vn -0.000001 0.000000 -1.000000
vn 0.000000 0.000000 -1.000000
vn 0.000000 0.000000 -1.000000
vn -0.382685 0.923879 0.000000
vn -0.382685 0.923879 0.000000
vn -0.382685 0.923879 0.000000
vn -0.382685 0.923879 0.000000
vn 0.382680 0.923881 0.000000
vn 0.382680 0.923881 0.000000
vn 0.382680 0.923881 0.000000
vn 0.382680 0.923881 0.000000
vn 0.923880 0.382683 0.000000
vn 0.923880 0.382683 0.000000
vn 0.923880 0.382683 0.000000
vn 0.923880 0.382683 0.000000
vn 0.923880 -0.382683 0.000000
vn 0.923880 -0.382683 0.000000
vn 0.923880 -0.382683 0.000000
vn 0.923880 -0.382683 0.000000
vn 0.382680 -0.923881 0.000000
vn 0.382680 -0.923881 0.000000
vn 0.382680 -0.923881 0.000000
vn 0.382680 -0.923881 0.000000
vn -0.382685 -0.923879 0.000000
vn -0.382685 -0.923879 0.000000
vn -0.382685 -0.923879 0.000000
vn -0.382685 -0.923879 0.000000
vn -0.923878 -0.382688 0.000000
vn -0.923878 -0.382688 0.000000
vn -0.923878 -0.382688 0.000000
vn -0.923878 -0.382688 0.000000
vn -0.923878 0.382688 0.000000
vn -0.923878 0.382688 0.000000
vn -0.923878 0.382688 0.000000
vn -0.923878 0.382688 0.000000
vn 0.000002 0.000000 1.000000
vn 0.000004 0.000000 1.000000
vn -0.000000 0.000000 1.000000
vn -0.000002 0.000000 1.000000
vn 0.000000 0.000000 1.000000
vn -0.000004 0.000000 1.000000
vn -0.000002 0.000000 1.000000
vn 0.000002 0.000000 1.000000
vn 0.000000 0.000000 1.000000
vn 0.000001 0.000000 -1.000000
vn 0.000001 0.000000 -1.000000
vn -0.000000 0.000000 -1.000000
vn 0.000000 0.000000 -1.000000
vn 0.000000 0.000000 -1.000000
vn -0.000001 0.000000 -1.000000
vn -0.000001 0.000000 -1.000000
vn 0.000000 0.000000 -1.000000
vn 0.000000 0.000000 -1.000000
s off
g polySurface66
usemtl lambert5SG
f 1/1/1 2/2/2 10/3/3 9/4/4
f 2/2/5 3/5/6 11/6/7 10/3/8
f 3/7/9 4/8/10 12/9/11 11/10/12
f 4/8/13 5/11/14 13/12/15 12/9/16
f 5/13/17 6/14/18 14/15/19 13/16/20
f 6/14/21 7/17/22 15/18/23 14/15/24
f 7/19/25 8/20/26 16/21/27 15/22/28
f 8/20/29 1/23/30 9/24/31 16/21/32
s 1
f 2/25/33 1/26/34 17/27/35
f 3/28/36 2/25/33 17/27/35
f 4/29/37 3/28/36 17/27/35
f 5/30/38 4/29/37 17/27/35
f 6/31/39 5/30/38 17/27/35
f 7/32/40 6/31/39 17/27/35
f 8/33/41 7/32/40 17/27/35
f 1/26/34 8/33/41 17/27/35
s 2
f 9/34/42 10/35/43 18/36/44
f 10/35/43 11/37/45 18/36/44
f 11/37/45 12/38/46 18/36/44
f 12/38/46 13/39/47 18/36/44
f 13/39/47 14/40/48 18/36/44
f 14/40/48 15/41/49 18/36/44
f 15/41/49 16/42/50 18/36/44
f 16/42/50 9/34/42 18/36/44
s off
f 19/43/51 20/44/52 28/45/53 27/46/54
f 20/44/55 21/47/56 29/48/57 28/45/58
f 21/49/59 22/50/60 30/51/61 29/52/62
f 22/50/63 23/53/64 31/54/65 30/51/66
f 23/55/67 24/56/68 32/57/69 31/58/70
f 24/56/71 25/59/72 33/60/73 32/57/74
f 25/61/75 26/62/76 34/63/77 33/64/78
f 26/62/79 19/65/80 27/66/81 34/63/82
s 3
f 20/67/83 19/68/84 35/69/85
f 21/70/86 20/67/83 35/69/85
f 22/71/87 21/70/86 35/69/85
f 23/72/88 22/71/87 35/69/85
f 24/73/89 23/72/88 35/69/85
f 25/74/90 24/73/89 35/69/85
f 26/75/91 25/74/90 35/69/85
f 19/68/84 26/75/91 35/69/85
s 4
f 27/76/92 28/77/93 36/78/94
f 28/77/93 29/79/95 36/78/94
f 29/79/95 30/80/96 36/78/94
f 30/80/96 31/81/97 36/78/94
f 31/81/97 32/82/98 36/78/94
f 32/82/98 33/83/99 36/78/94
f 33/83/99 34/84/100 36/78/94
f 34/84/100 27/76/92 36/78/94
s off
f 37/85/101 38/86/102 46/87/103 45/88/104
f 38/86/105 39/89/106 47/90/107 46/87/108
f 39/91/109 40/92/110 48/93/111 47/94/112
f 40/92/113 41/95/114 49/96/115 48/93/116
f 41/97/117 42/98/118 50/99/119 49/100/120
f 42/98/121 43/101/122 51/102/123 50/99/124
f 43/103/125 44/104/126 52/105/127 51/106/128
f 44/104/129 37/107/130 45/108/131 52/105/132
s 5
f 38/109/133 37/110/134 53/111/135
f 39/112/136 38/109/133 53/111/135
f 40/113/137 39/112/136 53/111/135
f 41/114/138 40/113/137 53/111/135
f 42/115/139 41/114/138 53/111/135
f 43/116/140 42/115/139 53/111/135
f 44/117/141 43/116/140 53/111/135
f 37/110/134 44/117/141 53/111/135
s 6
f 45/118/142 46/119/143 54/120/144
f 46/119/143 47/121/145 54/120/144
f 47/121/145 48/122/146 54/120/144
f 48/122/146 49/123/147 54/120/144
f 49/123/147 50/124/148 54/120/144
f 50/124/148 51/125/149 54/120/144
f 51/125/149 52/126/150 54/120/144
f 52/126/150 45/118/142 54/120/144
s off
f 55/127/151 56/128/152 64/129/153 63/130/154
f 56/128/155 57/131/156 65/132/157 64/129/158
f 57/133/159 58/134/160 66/135/161 65/136/162
f 58/134/163 59/137/164 67/138/165 66/135/166
f 59/139/167 60/140/168 68/141/169 67/142/170
f 60/140/171 61/143/172 69/144/173 68/141/174
f 61/145/175 62/146/176 70/147/177 69/148/178
f 62/146/179 55/149/180 63/150/181 70/147/182
s 7
f 56/151/183 55/152/184 71/153/185
f 57/154/186 56/151/183 71/153/185
f 58/155/187 57/154/186 71/153/185
f 59/156/188 58/155/187 71/153/185
f 60/157/189 59/156/188 71/153/185
f 61/158/190 60/157/189 71/153/185
f 62/159/191 61/158/190 71/153/185
f 55/152/184 62/159/191 71/153/185
s 8
f 63/160/192 64/161/193 72/162/194
f 64/161/193 65/163/195 72/162/194
f 65/163/195 66/164/196 72/162/194
f 66/164/196 67/165/197 72/162/194
f 67/165/197 68/166/198 72/162/194
f 68/166/198 69/167/199 72/162/194
f 69/167/199 70/168/200 72/162/194
f 70/168/200 63/160/192 72/162/194
