# This file uses centimeters as units for non-parametric coordinates.

mtllib Gate_Frame.mtl
g default
v -0.487666 2.000000 0.487666
v 0.487666 2.000000 0.487666
v 0.487666 2.000000 -0.487666
v -0.487666 2.000000 -0.487666
v 0.500000 2.000000 0.458333
v -0.500000 2.000000 0.458333
v 0.500000 2.000000 -0.458334
v -0.500000 2.000000 -0.458333
v -0.458333 2.000000 0.500000
v -0.458333 2.000000 0.458333
v -0.458333 2.000000 -0.458333
v -0.458333 2.000000 -0.500000
v 0.458333 2.000000 0.500000
v 0.458333 2.000000 0.458333
v 0.458333 2.000000 -0.458334
v 0.458333 2.000000 -0.500000
v 0.458333 0.000000 -0.458333
v 0.458333 0.000000 -0.500000
v 0.487666 0.000000 -0.487666
v 0.500000 0.000000 -0.458334
v 0.458334 0.000000 0.500000
v 0.458333 0.000000 0.458333
v 0.500000 0.000000 0.458333
v 0.487666 0.000000 0.487666
v -0.458333 0.000000 0.458333
v -0.500000 0.000000 0.458333
v -0.458333 0.000000 0.500000
v -0.487666 0.000000 0.487666
v -0.458333 0.000000 -0.500000
v -0.487666 0.000000 -0.487666
v -0.458333 0.000000 -0.458333
v -0.500000 0.000000 -0.458333
v 0.458333 1.970000 -0.458334
v 0.458333 1.970000 -0.500000
v 0.487666 1.970000 -0.487666
v 0.500000 1.970000 -0.458334
v -0.458333 1.970000 -0.500000
v -0.458333 1.970000 -0.458333
v -0.500000 1.970000 -0.458333
v -0.487666 1.970000 -0.487666
v -0.458333 1.970000 0.458333
v -0.458333 1.970000 0.500000
v -0.487666 1.970000 0.487666
v -0.500000 1.970000 0.458333
v 0.458333 1.970000 0.500000
v 0.458333 1.970000 0.458333
v 0.500000 1.970000 0.458333
v 0.487666 1.970000 0.487666
vt 0.689539 0.990566
vt 0.679203 0.990566
vt 0.679203 0.501874
vt 0.689539 0.501874
vt 0.492922 0.490684
vt 0.485646 0.490684
vt 0.485646 0.001992
vt 0.492922 0.001992
vt 0.492922 0.498126
vt 0.485646 0.498126
vt 0.258251 0.498126
vt 0.258251 0.490684
vt 0.250974 0.498126
vt 0.250974 0.490684
vt 0.250974 0.001992
vt 0.258251 0.001992
vt 0.657343 0.990566
vt 0.647007 0.990566
vt 0.647007 0.501874
vt 0.657343 0.501874
vt 0.609049 0.990566
vt 0.598713 0.990566
vt 0.598713 0.501874
vt 0.609049 0.501874
vt 0.937248 0.990566
vt 0.929972 0.990566
vt 0.929972 0.501874
vt 0.937248 0.501874
vt 0.937248 0.998008
vt 0.929972 0.998008
vt 0.702577 0.998008
vt 0.702577 0.990566
vt 0.695301 0.998008
vt 0.695301 0.990566
vt 0.695301 0.501874
vt 0.702577 0.501874
vt 0.592951 0.990566
vt 0.582615 0.990566
vt 0.582615 0.501874
vt 0.592951 0.501874
vt 0.224783 0.501874
vt 0.232225 0.501874
vt 0.232225 0.729269
vt 0.224783 0.729269
vt 0.219021 0.729269
vt 0.211579 0.729269
vt 0.211579 0.501874
vt 0.219021 0.501874
vt 0.323025 0.501874
vt 0.323025 0.512210
vt 0.312688 0.512211
vt 0.315748 0.504934
vt 0.550419 0.501874
vt 0.550419 0.512210
vt 0.323025 0.739605
vt 0.312688 0.739605
vt 0.560755 0.512210
vt 0.557696 0.504934
vt 0.323025 0.749941
vt 0.315748 0.746881
vt 0.560755 0.739605
vt 0.550419 0.739605
vt 0.550419 0.749941
vt 0.557696 0.746882
vt 0.293723 0.729269
vt 0.283387 0.729269
vt 0.283387 0.501874
vt 0.293723 0.501874
vt 0.277625 0.729269
vt 0.267289 0.729269
vt 0.267289 0.501874
vt 0.277625 0.501874
vt 0.248323 0.729269
vt 0.237987 0.729269
vt 0.237987 0.501874
vt 0.248323 0.501874
vt 0.205817 0.729269
vt 0.195481 0.729269
vt 0.195481 0.501874
vt 0.205817 0.501874
vt 0.236542 0.009434
vt 0.243818 0.009434
vt 0.243818 0.498126
vt 0.236542 0.498126
vt 0.236542 0.001992
vt 0.243818 0.001992
vt 0.009147 0.009434
vt 0.009147 0.001992
vt 0.001871 0.001992
vt 0.001871 0.009434
vt 0.009147 0.498126
vt 0.001871 0.498126
vt 0.673441 0.990566
vt 0.663105 0.990566
vt 0.663105 0.501874
vt 0.673441 0.501874
vt 0.630909 0.501874
vt 0.641245 0.501874
vt 0.641245 0.990566
vt 0.630909 0.990566
vt 0.741843 0.490684
vt 0.734566 0.490684
vt 0.734566 0.001992
vt 0.741843 0.001992
vt 0.741843 0.498126
vt 0.734566 0.498126
vt 0.507171 0.498126
vt 0.507171 0.490684
vt 0.499895 0.498126
vt 0.499895 0.490684
vt 0.499895 0.001992
vt 0.507171 0.001992
vt 0.614811 0.501874
vt 0.625147 0.501874
vt 0.625147 0.990566
vt 0.614811 0.990566
vt 0.576853 0.990566
vt 0.566517 0.990566
vt 0.566517 0.501874
vt 0.576853 0.501874
vt 0.306927 0.729269
vt 0.299485 0.729269
vt 0.299485 0.501874
vt 0.306927 0.501874
vt 0.261527 0.729269
vt 0.254085 0.729269
vt 0.254085 0.501874
vt 0.261527 0.501874
vn -1.000000 0.000000 0.000004
vn -1.000000 0.000000 0.000004
vn -1.000000 0.000000 0.000004
vn -1.000000 0.000000 0.000004
vn 0.387604 -0.000000 -0.921826
vn 0.387604 -0.000000 -0.921826
vn 0.387604 -0.000000 -0.921826
vn 0.387604 -0.000000 -0.921826
vn 0.921821 -0.000000 -0.387616
vn 0.921821 -0.000000 -0.387616
vn 0.921821 -0.000000 -0.387616
vn 0.921821 -0.000000 -0.387616
vn 0.000001 0.000000 1.000000
vn 0.000001 0.000000 1.000000
vn 0.000001 0.000000 1.000000
vn 0.000001 0.000000 1.000000
vn -1.000000 -0.000000 0.000003
vn -1.000000 -0.000000 0.000003
vn -1.000000 -0.000000 0.000003
vn -1.000000 -0.000000 0.000003
vn -0.000003 0.000000 -1.000000
vn -0.000003 0.000000 -1.000000
vn -0.000003 0.000000 -1.000000
vn -0.000003 0.000000 -1.000000
vn 0.921825 -0.000000 0.387606
vn 0.921825 -0.000000 0.387606
vn 0.921825 -0.000000 0.387606
vn 0.921825 -0.000000 0.387606
vn 0.387606 -0.000000 0.921825
vn 0.387606 -0.000000 0.921825
vn 0.387606 -0.000000 0.921825
vn 0.387606 -0.000000 0.921825
vn 0.000007 0.000000 -1.000000
vn 0.000007 0.000000 -1.000000
vn 0.000007 0.000000 -1.000000
vn 0.000007 0.000000 -1.000000
vn 1.000000 0.000000 0.000006
vn 1.000000 0.000000 0.000006
vn 1.000000 0.000000 0.000006
vn 1.000000 0.000000 0.000006
vn -0.387620 -0.000000 0.921819
vn -0.387620 -0.000000 0.921819
vn -0.387620 -0.000000 0.921819
vn -0.387620 -0.000000 0.921819
vn -0.921826 0.000000 0.387603
vn -0.921826 0.000000 0.387603
vn -0.921826 0.000000 0.387603
vn -0.921826 0.000000 0.387603
vn -0.387609 0.000000 -0.921824
vn -0.387609 0.000000 -0.921824
vn -0.387609 0.000000 -0.921824
vn -0.387609 0.000000 -0.921824
vn 1.000000 -0.000000 0.000002
vn 1.000000 -0.000000 0.000002
vn 1.000000 -0.000000 0.000002
vn 1.000000 -0.000000 0.000002
vn -0.000001 0.000000 1.000000
vn -0.000001 0.000000 1.000000
vn -0.000001 0.000000 1.000000
vn -0.000001 0.000000 1.000000
vn -0.921824 0.000000 -0.387609
vn -0.921824 0.000000 -0.387609
vn -0.921824 0.000000 -0.387609
vn -0.921824 0.000000 -0.387609
vn 0.000000 1.000000 0.000000
vn 0.000000 1.000000 0.000000
vn 0.000000 1.000000 0.000000
vn 0.000000 1.000000 0.000000
vn 0.000000 1.000000 0.000000
vn 0.000000 1.000000 0.000000
vn 0.000000 1.000000 0.000000
vn 0.000000 1.000000 0.000000
vn 0.000000 1.000000 0.000000
vn 0.000000 1.000000 0.000000
vn 0.000000 1.000000 0.000000
vn 0.000000 1.000000 0.000000
vn 0.000000 1.000000 0.000000
vn 0.000000 1.000000 0.000000
vn 0.000000 1.000000 0.000000
vn 0.000000 1.000000 0.000000
vn 0.387603 0.000000 -0.921827
vn 0.387603 0.000000 -0.921827
vn 0.387603 0.000000 -0.921827
vn 0.387603 0.000000 -0.921827
vn 0.921820 0.000000 -0.387619
vn 0.921820 0.000000 -0.387619
vn 0.921820 0.000000 -0.387619
vn 0.921820 0.000000 -0.387619
vn -0.921825 0.000000 -0.387606
vn -0.921825 0.000000 -0.387606
vn -0.921825 0.000000 -0.387606
vn -0.921825 0.000000 -0.387606
vn -0.387610 0.000000 -0.921824
vn -0.387610 0.000000 -0.921824
vn -0.387610 0.000000 -0.921824
vn -0.387610 0.000000 -0.921824
vn -0.387628 0.000000 0.921816
vn -0.387628 0.000000 0.921816
vn -0.387628 0.000000 0.921816
vn -0.387628 0.000000 0.921816
vn -0.921828 0.000000 0.387599
vn -0.921828 0.000000 0.387599
vn -0.921828 0.000000 0.387599
vn -0.921828 0.000000 0.387599
vn 0.921827 -0.000000 0.387602
vn 0.921827 -0.000000 0.387602
vn 0.921827 -0.000000 0.387602
vn 0.921827 -0.000000 0.387602
vn 0.387600 0.000000 0.921828
vn 0.387600 0.000000 0.921828
vn 0.387600 0.000000 0.921828
vn 0.387600 0.000000 0.921828
vn 0.000000 1.000000 0.000000
vn 0.000000 1.000000 0.000000
vn 0.000000 1.000000 0.000000
vn 0.000000 1.000000 0.000000
vn 0.000000 -0.000000 1.000000
vn 0.000000 -0.000000 1.000000
vn 0.000000 -0.000000 1.000000
vn 0.000000 -0.000000 1.000000
vn 0.000000 -1.000000 0.000000
vn 0.000000 -1.000000 0.000000
vn 0.000000 -1.000000 0.000000
vn 0.000000 -1.000000 0.000000
vn -0.000000 0.000000 -1.000000
vn -0.000000 0.000000 -1.000000
vn -0.000000 0.000000 -1.000000
vn -0.000000 0.000000 -1.000000
vn 0.000000 1.000000 0.000000
vn 0.000000 1.000000 0.000000
vn 0.000000 1.000000 0.000000
vn 0.000000 1.000000 0.000000
vn 0.000000 0.000000 1.000000
vn 0.000000 0.000000 1.000000
vn 0.000000 0.000000 1.000000
vn 0.000000 0.000000 1.000000
vn 0.000000 -1.000000 0.000000
vn 0.000000 -1.000000 0.000000
vn 0.000000 -1.000000 0.000000
vn 0.000000 -1.000000 0.000000
vn 0.000000 0.000000 -1.000000
vn 0.000000 0.000000 -1.000000
vn 0.000000 0.000000 -1.000000
vn 0.000000 0.000000 -1.000000
vn 0.000000 1.000000 0.000000
vn 0.000000 1.000000 0.000000
vn 0.000000 1.000000 0.000000
vn 0.000000 1.000000 0.000000
vn 1.000000 0.000000 0.000000
vn 1.000000 0.000000 0.000000
vn 1.000000 0.000000 0.000000
vn 1.000000 0.000000 0.000000
vn 0.000000 -1.000000 -0.000000
vn 0.000000 -1.000000 -0.000000
vn 0.000000 -1.000000 -0.000000
vn 0.000000 -1.000000 -0.000000
vn -1.000000 -0.000001 -0.000000
vn -1.000000 -0.000001 -0.000000
vn -1.000000 -0.000001 -0.000000
vn -1.000000 -0.000001 -0.000000
vn 0.000000 1.000000 0.000000
vn 0.000000 1.000000 0.000000
vn 0.000000 1.000000 0.000000
vn 0.000000 1.000000 0.000000
vn 1.000000 -0.000002 0.000000
vn 1.000000 -0.000002 0.000000
vn 1.000000 -0.000002 0.000000
vn 1.000000 -0.000002 0.000000
vn 0.000000 -1.000000 -0.000000
vn 0.000000 -1.000000 -0.000000
vn 0.000000 -1.000000 -0.000000
vn 0.000000 -1.000000 -0.000000
vn -1.000000 0.000000 0.000000
vn -1.000000 0.000000 0.000000
vn -1.000000 0.000000 0.000000
vn -1.000000 0.000000 0.000000
s off
g Gate_Frame
usemtl initialShadingGroup
f 33/1/1 34/2/2 18/3/3 17/4/4
f 34/81/5 35/82/6 19/83/7 18/84/8
f 35/5/9 36/6/10 20/7/11 19/8/12
f 36/93/13 33/94/14 17/95/15 20/96/16
f 45/17/17 46/18/18 22/19/19 21/20/20
f 46/97/21 47/98/22 23/99/23 22/100/24
f 47/12/25 48/14/26 24/15/27 23/16/28
f 48/101/29 45/102/30 21/103/31 24/104/32
f 44/113/33 41/114/34 25/115/35 26/116/36
f 41/21/37 42/22/38 27/23/39 25/24/40
f 42/108/41 43/110/42 28/111/43 27/112/44
f 43/25/45 44/26/46 26/27/47 28/28/48
f 40/90/49 37/87/50 29/91/51 30/92/52
f 37/37/53 38/38/54 31/39/55 29/40/56
f 38/117/57 39/118/58 32/119/59 31/120/60
f 39/32/61 40/34/62 30/35/63 32/36/64
f 9/49/65 10/50/66 6/51/67 1/52/68
f 5/57/69 14/54/70 13/53/71 2/58/72
f 8/56/73 11/55/74 12/59/75 4/60/76
f 16/63/77 15/62/78 7/61/79 3/64/80
f 16/85/81 3/86/82 35/82/83 34/81/84
f 3/9/85 7/10/86 36/6/87 35/5/88
f 8/31/89 4/33/90 40/34/91 39/32/92
f 4/89/93 12/88/94 37/87/95 40/90/96
f 9/107/97 1/109/98 43/110/99 42/108/100
f 1/29/101 6/30/102 44/26/103 43/25/104
f 5/11/105 2/13/106 48/14/107 47/12/108
f 2/105/109 13/106/110 45/102/111 48/101/112
f 12/59/113 11/55/114 15/62/115 16/63/116
f 11/121/117 38/122/118 33/123/119 15/124/120
f 38/65/121 37/66/122 34/67/123 33/68/124
f 37/87/125 12/88/126 16/85/127 34/81/128
f 10/50/129 9/49/130 13/53/131 14/54/132
f 9/107/133 42/108/134 45/102/135 13/106/136
f 42/69/137 41/70/138 46/71/139 45/72/140
f 41/125/141 10/126/142 14/127/143 46/128/144
f 14/54/145 5/57/146 7/61/147 15/62/148
f 5/11/149 47/12/150 36/6/151 7/10/152
f 47/73/153 46/74/154 33/75/155 36/76/156
f 46/41/157 14/42/158 15/43/159 33/44/160
f 6/51/161 10/50/162 11/55/163 8/56/164
f 10/45/165 41/46/166 38/47/167 11/48/168
f 41/77/169 44/78/170 39/79/171 38/80/172
f 44/26/173 6/30/174 8/31/175 39/32/176
