# This file uses millimeters as units for non-parametric coordinates.

mtllib General Button .mtl
g default
v -0.029550 -0.029550 -0.016783
v 0.029550 -0.029550 -0.016783
v -0.029550 0.029550 -0.016783
v 0.029550 0.029550 -0.016783
v 0.028683 0.023959 -0.013571
v 0.028683 -0.023959 -0.013571
v 0.021247 0.016523 0.013960
v 0.021247 -0.016523 0.013960
v -0.024869 -0.028824 -0.014094
v 0.024869 -0.028824 -0.014094
v 0.017151 -0.021105 0.014483
v -0.017151 -0.021105 0.014483
v -0.028891 0.025303 -0.014343
v -0.028891 -0.025303 -0.014343
v -0.021038 -0.017450 0.014732
v -0.021038 0.017450 0.014732
v -0.017032 0.021132 0.014384
v 0.017032 0.021132 0.014384
v 0.024698 0.028797 -0.013995
v -0.024698 0.028797 -0.013995
v -0.017201 -0.017201 0.016783
v 0.017201 -0.017201 0.016783
v 0.017201 0.017201 0.016783
v -0.017201 0.017201 0.016783
vt 0.765332 0.869023
vt 0.765332 0.501709
vt 0.976366 0.558710
vt 0.976366 0.812022
vt 0.740707 0.911884
vt 0.740707 0.458848
vt 0.762078 0.464620
vt 0.979621 0.523380
vt 0.998008 0.553511
vt 0.998008 0.817221
vt 0.980375 0.847149
vt 0.761323 0.906315
vt 0.511701 0.879325
vt 0.511701 0.491409
vt 0.734572 0.551607
vt 0.734572 0.819127
vt 0.492994 0.911885
vt 0.492994 0.458848
vt 0.732662 0.523583
vt 0.513610 0.464417
vt 0.514365 0.906112
vt 0.731907 0.847353
vt 0.223148 0.488776
vt 0.486858 0.488776
vt 0.486858 0.752487
vt 0.223148 0.752487
vt 0.486470 0.458848
vt 0.223536 0.458848
vt 0.485565 0.782618
vt 0.224441 0.782618
vt 0.193736 0.754391
vt 0.193736 0.486872
vt 0.495272 0.454856
vt 0.495272 0.001820
vt 0.948308 0.001820
vt 0.948308 0.454856
vt 0.180949 0.501709
vt 0.151716 0.464417
vt 0.187601 0.458848
vt 0.145581 0.501709
vt 0.108383 0.495937
vt 0.138929 0.458848
vt 0.102248 0.496046
vt 0.069688 0.490993
vt 0.096475 0.458848
vt 0.036561 0.458848
vt 0.063553 0.489680
vt 0.030993 0.494732
vt 0.022609 0.418972
vt 0.022609 0.037705
vt 0.241660 0.096871
vt 0.241660 0.359806
vt 0.001992 0.454856
vt 0.001992 0.001820
vt 0.249704 0.358900
vt 0.249704 0.097777
vt 0.467246 0.039018
vt 0.467246 0.417659
vt 0.488618 0.001820
vt 0.488618 0.454856
vn 0.000000 -0.965404 0.260758
vn 0.000000 -0.965404 0.260758
vn 0.000000 -0.965404 0.260758
vn 0.000000 -0.965404 0.260758
vn 0.000000 0.000000 1.000000
vn 0.000000 0.000000 1.000000
vn 0.000000 0.000000 1.000000
vn 0.000000 0.000000 1.000000
vn 0.000000 0.965403 0.260761
vn 0.000000 0.965403 0.260761
vn 0.000000 0.965403 0.260761
vn 0.000000 0.965403 0.260761
vn 0.000000 -0.000000 -1.000000
vn 0.000000 -0.000000 -1.000000
vn 0.000000 -0.000000 -1.000000
vn 0.000000 -0.000000 -1.000000
vn 0.965404 0.000000 0.260758
vn 0.965404 0.000000 0.260758
vn 0.965404 0.000000 0.260758
vn 0.965404 0.000000 0.260758
vn -0.965404 0.000000 0.260758
vn -0.965404 0.000000 0.260758
vn -0.965404 0.000000 0.260758
vn -0.965404 0.000000 0.260758
vn 0.965400 0.000000 0.260774
vn 0.965400 0.000000 0.260774
vn 0.965400 0.000000 0.260774
vn 0.965400 0.000000 0.260774
vn 0.000000 -0.965407 0.260749
vn 0.000000 -0.965407 0.260749
vn 0.000000 -0.965407 0.260749
vn 0.000000 -0.965407 0.260749
vn 0.716640 -0.599970 0.355616
vn 0.716640 -0.599970 0.355616
vn 0.704112 -0.593783 0.389420
vn 0.708539 -0.596007 0.377822
vn -0.965405 0.000000 0.260756
vn -0.965405 0.000000 0.260756
vn -0.965405 0.000000 0.260756
vn -0.965405 0.000000 0.260756
vn -0.627834 -0.691922 0.356466
vn -0.627834 -0.691922 0.356466
vn -0.621797 -0.683152 0.382978
vn -0.623097 -0.685026 0.377478
vn -0.392037 -0.470764 0.790372
vn -0.392037 -0.470764 0.790372
vn -0.392037 -0.470764 0.790372
vn -0.611266 0.696055 0.376644
vn -0.609614 0.693309 0.384309
vn -0.615452 0.703118 0.356151
vn -0.615452 0.703118 0.356151
vn -0.385242 0.492701 0.780278
vn -0.385242 0.492701 0.780278
vn -0.385242 0.492701 0.780278
vn 0.697438 0.607726 0.379802
vn 0.693973 0.605703 0.389264
vn 0.705747 0.612488 0.356061
vn 0.705747 0.612488 0.356061
vn 0.000000 0.965404 0.260760
vn 0.000000 0.965404 0.260760
vn 0.000000 0.965404 0.260760
vn 0.000000 0.965404 0.260760
vn 0.560823 0.448698 0.695807
vn 0.560823 0.448698 0.695807
vn 0.560823 0.448698 0.695807
vn 0.000000 -0.507632 0.861574
vn 0.000000 -0.507632 0.861574
vn 0.000000 -0.507632 0.861574
vn 0.000000 -0.507632 0.861574
vn 0.565004 -0.424260 0.707653
vn 0.565004 -0.424260 0.707653
vn 0.565004 -0.424260 0.707653
vn -0.471448 0.000000 0.881894
vn -0.471448 0.000000 0.881894
vn -0.471448 0.000000 0.881894
vn -0.471448 0.000000 0.881894
vn 0.000000 0.520914 0.853609
vn 0.000000 0.520914 0.853609
vn 0.000000 0.520914 0.853609
vn 0.000000 0.520914 0.853609
vn 0.572301 0.000000 0.820044
vn 0.572301 0.000000 0.820044
vn 0.572301 0.000000 0.820044
vn 0.572301 0.000000 0.820044
vn 0.406812 -0.406810 0.817930
vn 0.406818 0.406795 0.817935
vn -0.406819 0.406801 0.817931
vn -0.406803 -0.406811 0.817934
s off
g polySurface55 pCube10
usemtl lambert29SG
f 9/49/1 10/50/2 11/51/3 12/52/4
f 21/23/5 22/24/6 23/25/7 24/26/8
f 17/55/9 18/56/10 19/57/11 20/58/12
f 3/33/13 4/34/14 2/35/15 1/36/16
f 6/1/17 5/2/18 7/3/19 8/4/20
f 13/13/21 14/14/22 15/15/23 16/16/24
f 2/5/25 4/6/26 5/2/27 6/1/28
f 1/53/29 2/54/30 10/50/31 9/49/32
s 1
f 8/4/33 11/11/34 10/12/35 6/1/36
s off
f 3/17/37 1/18/38 14/14/39 13/13/40
s 2
f 12/19/41 15/15/42 14/14/43 9/20/44
s off
f 21/23/45 15/32/46 12/28/47
s 3
f 20/21/48 13/13/49 16/16/50 17/22/51
s off
f 24/26/52 17/30/53 16/31/54
s 4
f 5/2/55 19/7/56 18/8/57 7/3/58
s off
f 4/59/59 3/60/60 20/58/61 19/57/62
f 23/9/63 7/3/64 18/8/65
f 11/27/66 22/24/67 21/23/68 12/28/69
f 22/10/70 11/11/71 8/4/72
f 16/31/73 15/32/74 21/23/75 24/26/76
f 18/29/77 17/30/78 24/26/79 23/25/80
f 23/9/81 22/10/82 8/4/83 7/3/84
s 1
f 6/37/36 10/38/35 2/39/85
s 4
f 4/40/86 19/41/56 5/42/55
s 3
f 3/43/87 13/44/49 20/45/48
s 2
f 9/46/44 14/47/43 1/48/88
