# This file uses centimeters as units for non-parametric coordinates.

mtllib Mirror_BaseStand.mtl
g default
v 0.433013 -0.000000 -0.250000
v 0.250000 -0.000000 -0.433013
v 0.000000 -0.000000 -0.500000
v -0.250000 -0.000000 -0.433013
v -0.433013 -0.000000 -0.250000
v -0.500000 -0.000000 0.000000
v -0.433013 -0.000000 0.250000
v -0.250000 -0.000000 0.433013
v 0.000000 -0.000000 0.500000
v 0.250000 -0.000000 0.433013
v 0.433013 -0.000000 0.250000
v 0.500000 -0.000000 0.000000
v 0.433013 0.045796 -0.250000
v 0.250000 0.045796 -0.433013
v 0.000000 0.045796 -0.500000
v -0.250000 0.045796 -0.433013
v -0.433013 0.045796 -0.250000
v -0.500000 0.045796 0.000000
v -0.433013 0.045796 0.250000
v -0.250000 0.045796 0.433013
v 0.000000 0.045796 0.500000
v 0.250000 0.045796 0.433013
v 0.433013 0.045796 0.250000
v 0.500000 0.045796 0.000000
v 0.405116 0.077289 -0.233894
v 0.233894 0.077289 -0.405116
v 0.000000 0.077289 -0.467788
v -0.233894 0.077289 -0.405116
v -0.405116 0.077289 -0.233894
v -0.467788 0.077289 0.000000
v -0.405116 0.077289 0.233894
v -0.233894 0.077289 0.405116
v 0.000000 0.077289 0.467788
v 0.233894 0.077289 0.405116
v 0.405116 0.077289 0.233894
v 0.467788 0.077289 0.000000
v 0.386013 0.045796 -0.222865
v 0.222865 0.045796 -0.386013
v 0.000000 0.045796 -0.445729
v -0.222865 0.045796 -0.386013
v -0.386013 0.045796 -0.222865
v -0.445729 0.045796 0.000000
v -0.386013 0.045796 0.222865
v -0.222865 0.045796 0.386013
v 0.000000 0.045796 0.445729
v 0.222865 0.045796 0.386013
v 0.386013 0.045796 0.222865
v 0.445729 0.045796 0.000000
v 0.386013 0.027480 -0.222865
v 0.222865 0.027480 -0.386013
v 0.000000 0.027480 -0.445729
v -0.222865 0.027480 -0.386013
v -0.386013 0.027480 -0.222865
v -0.445729 0.027480 0.000000
v -0.386013 0.027480 0.222865
v -0.222865 0.027480 0.386013
v 0.000000 0.027480 0.445729
v 0.222865 0.027480 0.386013
v 0.386013 0.027480 0.222865
v 0.445729 0.027480 0.000000
v 0.000000 0.027480 0.000000
vt 0.913599 0.512222
vt 0.913599 0.328736
vt 0.947211 0.328736
vt 0.947211 0.512222
vt 0.913599 0.145250
vt 0.947211 0.145250
vt 0.970325 0.328736
vt 0.970325 0.500401
vt 0.913599 0.646544
vt 0.947211 0.646544
vt 0.913599 0.010929
vt 0.947211 0.010929
vt 0.970325 0.157071
vt 0.970325 0.626069
vt 0.970325 0.031403
vt 0.834963 0.512222
vt 0.834963 0.328736
vt 0.868575 0.328736
vt 0.868575 0.512222
vt 0.834963 0.145250
vt 0.868575 0.145250
vt 0.891689 0.328736
vt 0.891689 0.500401
vt 0.834963 0.646544
vt 0.868575 0.646544
vt 0.834963 0.010929
vt 0.868575 0.010929
vt 0.891689 0.157071
vt 0.891689 0.626069
vt 0.891689 0.031403
vt 0.853607 0.965528
vt 0.690036 0.965528
vt 0.690036 0.931916
vt 0.853607 0.931916
vt 0.861702 0.988642
vt 0.690036 0.988642
vt 0.526466 0.965528
vt 0.526466 0.931916
vt 0.973349 0.965528
vt 0.973349 0.931916
vt 0.518371 0.988642
vt 0.987369 0.988642
vt 0.406724 0.965528
vt 0.406724 0.931916
vt 0.392704 0.988642
vt 0.856592 0.899720
vt 0.693022 0.899720
vt 0.693022 0.866108
vt 0.856592 0.866108
vt 0.864687 0.922834
vt 0.693022 0.922834
vt 0.529451 0.899720
vt 0.529451 0.866108
vt 0.976334 0.899720
vt 0.976334 0.866108
vt 0.521357 0.922834
vt 0.990355 0.922834
vt 0.409710 0.899720
vt 0.409710 0.866108
vt 0.395689 0.922834
vt 0.737455 0.773047
vt 0.679089 0.831413
vt 0.599360 0.693318
vt 0.599360 0.852776
vt 0.758819 0.693318
vt 0.519632 0.831413
vt 0.737455 0.613589
vt 0.461266 0.773047
vt 0.679089 0.555223
vt 0.439903 0.693318
vt 0.599360 0.533860
vt 0.461266 0.613589
vt 0.519632 0.555223
vt 0.128607 0.058579
vt 0.128607 0.242065
vt 0.094996 0.242065
vt 0.094996 0.058579
vt 0.128607 0.425551
vt 0.094996 0.425551
vt 0.071881 0.242065
vt 0.071881 0.070400
vt 0.071881 0.413731
vt 0.140808 0.425815
vt 0.140808 0.242329
vt 0.174419 0.242329
vt 0.174419 0.425815
vt 0.140808 0.058843
vt 0.174419 0.058843
vt 0.197533 0.242329
vt 0.197533 0.413994
vt 0.197533 0.070664
vt 0.301966 0.089191
vt 0.301966 0.252761
vt 0.268354 0.252761
vt 0.268354 0.089191
vt 0.325080 0.081096
vt 0.325080 0.252761
vt 0.301966 0.416332
vt 0.268354 0.416332
vt 0.325080 0.424426
vt 0.228607 0.416332
vt 0.228607 0.252761
vt 0.262218 0.252761
vt 0.262218 0.416332
vt 0.205492 0.424426
vt 0.205492 0.252761
vt 0.228607 0.089191
vt 0.262218 0.089191
vt 0.205492 0.081096
vn 0.707107 0.000000 -0.707107
vn 0.707107 0.000000 -0.707107
vn 0.707107 0.000000 -0.707107
vn 0.707107 0.000000 -0.707107
vn 0.258819 0.000000 -0.965926
vn 0.258819 0.000000 -0.965926
vn 0.258819 0.000000 -0.965926
vn 0.258819 0.000000 -0.965926
vn -0.258819 0.000000 -0.965926
vn -0.258819 0.000000 -0.965926
vn -0.258819 0.000000 -0.965926
vn -0.258819 0.000000 -0.965926
vn -0.707107 0.000000 -0.707107
vn -0.707107 0.000000 -0.707107
vn -0.707107 0.000000 -0.707107
vn -0.707107 0.000000 -0.707107
vn -0.965926 0.000000 -0.258819
vn -0.965926 0.000000 -0.258819
vn -0.965926 0.000000 -0.258819
vn -0.965926 0.000000 -0.258819
vn -0.965926 0.000000 0.258819
vn -0.965926 0.000000 0.258819
vn -0.965926 0.000000 0.258819
vn -0.965926 0.000000 0.258819
vn -0.707107 0.000000 0.707107
vn -0.707107 0.000000 0.707107
vn -0.707107 0.000000 0.707107
vn -0.707107 0.000000 0.707107
vn -0.258819 0.000000 0.965926
vn -0.258819 0.000000 0.965926
vn -0.258819 0.000000 0.965926
vn -0.258819 0.000000 0.965926
vn 0.258819 0.000000 0.965926
vn 0.258819 0.000000 0.965926
vn 0.258819 0.000000 0.965926
vn 0.258819 0.000000 0.965926
vn 0.707107 0.000000 0.707107
vn 0.707107 0.000000 0.707107
vn 0.707107 0.000000 0.707107
vn 0.707107 0.000000 0.707107
vn 0.965926 0.000000 0.258819
vn 0.965926 0.000000 0.258819
vn 0.965926 0.000000 0.258819
vn 0.965926 0.000000 0.258819
vn 0.965926 0.000000 -0.258819
vn 0.965926 0.000000 -0.258819
vn 0.965926 0.000000 -0.258819
vn 0.965926 0.000000 -0.258819
vn 0.503010 0.702824 -0.503010
vn 0.503010 0.702824 -0.503010
vn 0.503010 0.702824 -0.503010
vn 0.503010 0.702824 -0.503010
vn 0.184114 0.702824 -0.687124
vn 0.184114 0.702824 -0.687124
vn 0.184114 0.702824 -0.687124
vn 0.184114 0.702824 -0.687124
vn -0.184114 0.702824 -0.687124
vn -0.184114 0.702824 -0.687124
vn -0.184114 0.702824 -0.687124
vn -0.184114 0.702824 -0.687124
vn -0.503010 0.702824 -0.503010
vn -0.503010 0.702824 -0.503010
vn -0.503010 0.702824 -0.503010
vn -0.503010 0.702824 -0.503010
vn -0.687125 0.702824 -0.184114
vn -0.687125 0.702824 -0.184114
vn -0.687125 0.702824 -0.184114
vn -0.687125 0.702824 -0.184114
vn -0.687125 0.702824 0.184114
vn -0.687124 0.702824 0.184114
vn -0.687124 0.702824 0.184114
vn -0.687125 0.702824 0.184114
vn -0.503010 0.702824 0.503010
vn -0.503010 0.702824 0.503010
vn -0.503010 0.702824 0.503010
vn -0.503010 0.702824 0.503010
vn -0.184114 0.702824 0.687124
vn -0.184114 0.702824 0.687124
vn -0.184114 0.702824 0.687124
vn -0.184114 0.702824 0.687124
vn 0.184114 0.702824 0.687124
vn 0.184114 0.702824 0.687124
vn 0.184114 0.702824 0.687124
vn 0.184114 0.702824 0.687124
vn 0.503010 0.702824 0.503010
vn 0.503010 0.702824 0.503010
vn 0.503010 0.702824 0.503010
vn 0.503010 0.702824 0.503010
vn 0.687125 0.702824 0.184114
vn 0.687125 0.702824 0.184114
vn 0.687125 0.702824 0.184114
vn 0.687125 0.702824 0.184114
vn 0.687125 0.702824 -0.184114
vn 0.687124 0.702824 -0.184114
vn 0.687124 0.702824 -0.184114
vn 0.687125 0.702824 -0.184114
vn -0.585663 0.560355 0.585663
vn -0.585663 0.560355 0.585663
vn -0.585663 0.560355 0.585663
vn -0.585663 0.560355 0.585663
vn -0.214368 0.560355 0.800031
vn -0.214368 0.560355 0.800031
vn -0.214368 0.560355 0.800030
vn -0.214368 0.560355 0.800031
vn 0.214368 0.560355 0.800030
vn 0.214368 0.560355 0.800030
vn 0.214368 0.560355 0.800030
vn 0.214368 0.560355 0.800030
vn 0.585663 0.560355 0.585663
vn 0.585663 0.560355 0.585663
vn 0.585663 0.560355 0.585663
vn 0.585663 0.560355 0.585663
vn 0.800030 0.560355 0.214368
vn 0.800030 0.560355 0.214368
vn 0.800030 0.560355 0.214368
vn 0.800030 0.560355 0.214368
vn 0.800030 0.560355 -0.214368
vn 0.800030 0.560355 -0.214368
vn 0.800030 0.560355 -0.214368
vn 0.800030 0.560355 -0.214368
vn 0.585663 0.560355 -0.585663
vn 0.585663 0.560355 -0.585663
vn 0.585663 0.560355 -0.585663
vn 0.585663 0.560355 -0.585663
vn 0.214368 0.560355 -0.800031
vn 0.214368 0.560355 -0.800031
vn 0.214368 0.560355 -0.800030
vn 0.214368 0.560355 -0.800031
vn -0.214368 0.560355 -0.800030
vn -0.214368 0.560355 -0.800030
vn -0.214368 0.560355 -0.800030
vn -0.214368 0.560355 -0.800030
vn -0.585663 0.560355 -0.585663
vn -0.585663 0.560355 -0.585663
vn -0.585663 0.560355 -0.585663
vn -0.585663 0.560355 -0.585663
vn -0.800030 0.560355 -0.214368
vn -0.800030 0.560355 -0.214368
vn -0.800030 0.560355 -0.214368
vn -0.800030 0.560355 -0.214368
vn -0.800030 0.560355 0.214368
vn -0.800030 0.560355 0.214368
vn -0.800030 0.560355 0.214368
vn -0.800030 0.560355 0.214368
vn -0.707107 0.000000 0.707107
vn -0.707107 0.000000 0.707107
vn -0.707107 0.000000 0.707107
vn -0.707107 0.000000 0.707107
vn -0.258819 0.000000 0.965926
vn -0.258819 0.000000 0.965926
vn -0.258819 0.000000 0.965926
vn -0.258819 0.000000 0.965926
vn 0.258819 0.000000 0.965926
vn 0.258819 0.000000 0.965926
vn 0.258819 0.000000 0.965926
vn 0.258819 0.000000 0.965926
vn 0.707107 0.000000 0.707107
vn 0.707107 0.000000 0.707107
vn 0.707107 0.000000 0.707107
vn 0.707107 0.000000 0.707107
vn 0.965926 0.000000 0.258819
vn 0.965926 0.000000 0.258819
vn 0.965926 0.000000 0.258819
vn 0.965926 0.000000 0.258819
vn 0.965926 0.000000 -0.258819
vn 0.965926 0.000000 -0.258819
vn 0.965926 0.000000 -0.258819
vn 0.965926 0.000000 -0.258819
vn 0.707107 0.000000 -0.707107
vn 0.707107 0.000000 -0.707107
vn 0.707107 0.000000 -0.707107
vn 0.707107 0.000000 -0.707107
vn 0.258819 0.000000 -0.965926
vn 0.258819 0.000000 -0.965926
vn 0.258819 0.000000 -0.965926
vn 0.258819 0.000000 -0.965926
vn -0.258819 0.000000 -0.965926
vn -0.258819 0.000000 -0.965926
vn -0.258819 0.000000 -0.965926
vn -0.258819 0.000000 -0.965926
vn -0.707107 0.000000 -0.707107
vn -0.707107 0.000000 -0.707107
vn -0.707107 0.000000 -0.707107
vn -0.707107 0.000000 -0.707107
vn -0.965926 0.000000 -0.258819
vn -0.965926 0.000000 -0.258819
vn -0.965926 0.000000 -0.258819
vn -0.965926 0.000000 -0.258819
vn -0.965926 0.000000 0.258819
vn -0.965926 0.000000 0.258819
vn -0.965926 0.000000 0.258819
vn -0.965926 0.000000 0.258819
vn 0.000000 1.000000 -0.000000
vn 0.000000 1.000000 -0.000000
vn 0.000000 1.000000 -0.000000
vn 0.000000 1.000000 0.000000
vn 0.000000 1.000000 0.000000
vn 0.000000 1.000000 0.000000
vn 0.000000 1.000000 0.000000
vn 0.000000 1.000000 0.000000
vn 0.000000 1.000000 0.000000
vn 0.000000 1.000000 -0.000000
vn 0.000000 1.000000 -0.000000
vn 0.000000 1.000000 -0.000000
vn 0.000000 1.000000 0.000000
vn 0.000000 1.000000 0.000000
vn 0.000000 1.000000 0.000000
vn 0.000000 1.000000 -0.000000
vn 0.000000 1.000000 -0.000000
vn 0.000000 1.000000 -0.000000
vn 0.000000 1.000000 0.000000
vn 0.000000 1.000000 0.000000
vn 0.000000 1.000000 0.000000
vn 0.000000 1.000000 0.000000
vn 0.000000 1.000000 0.000000
vn 0.000000 1.000000 0.000000
vn 0.000000 1.000000 0.000000
vn 0.000000 1.000000 0.000000
vn 0.000000 1.000000 0.000000
vn 0.000000 1.000000 0.000000
vn 0.000000 1.000000 0.000000
vn 0.000000 1.000000 0.000000
vn 0.000000 1.000000 -0.000000
vn 0.000000 1.000000 -0.000000
vn 0.000000 1.000000 -0.000000
vn 0.000000 1.000000 0.000000
vn 0.000000 1.000000 0.000000
vn 0.000000 1.000000 0.000000
s off
g Mirror_Base pCylinder11
usemtl initialShadingGroup
f 1/20/1 2/26/2 14/27/3 13/21/4
f 2/74/5 3/75/6 15/76/7 14/77/8
f 3/75/9 4/78/10 16/79/11 15/76/12
f 4/9/13 5/1/14 17/4/15 16/10/16
f 5/1/17 6/2/18 18/3/19 17/4/20
f 6/2/21 7/5/22 19/6/23 18/3/24
f 7/5/25 8/11/26 20/12/27 19/6/28
f 8/83/29 9/84/30 21/85/31 20/86/32
f 9/84/33 10/87/34 22/88/35 21/85/36
f 10/24/37 11/16/38 23/19/39 22/25/40
f 11/16/41 12/17/42 24/18/43 23/19/44
f 12/17/45 1/20/46 13/21/47 24/18/48
f 13/21/49 14/27/50 26/30/51 25/28/52
f 14/77/53 15/76/54 27/80/55 26/81/56
f 15/76/57 16/79/58 28/82/59 27/80/60
f 16/10/61 17/4/62 29/8/63 28/14/64
f 17/4/65 18/3/66 30/7/67 29/8/68
f 18/3/69 19/6/70 31/13/71 30/7/72
f 19/6/73 20/12/74 32/15/75 31/13/76
f 20/86/77 21/85/78 33/89/79 32/90/80
f 21/85/81 22/88/82 34/91/83 33/89/84
f 22/25/85 23/19/86 35/23/87 34/29/88
f 23/19/89 24/18/90 36/22/91 35/23/92
f 24/18/93 13/21/94 25/28/95 36/22/96
f 25/56/97 26/60/98 38/58/99 37/52/100
f 26/96/101 27/97/102 39/93/103 38/92/104
f 27/97/105 28/100/106 40/98/107 39/93/108
f 28/42/109 29/35/110 41/31/111 40/39/112
f 29/35/113 30/36/114 42/32/115 41/31/116
f 30/36/117 31/41/118 43/37/119 42/32/120
f 31/41/121 32/45/122 44/43/123 43/37/124
f 32/105/125 33/106/126 45/102/127 44/101/128
f 33/106/129 34/109/130 46/107/131 45/102/132
f 34/57/133 35/50/134 47/46/135 46/54/136
f 35/50/137 36/51/138 48/47/139 47/46/140
f 36/51/141 25/56/142 37/52/143 48/47/144
f 37/52/145 38/58/146 50/59/147 49/53/148
f 38/92/149 39/93/150 51/94/151 50/95/152
f 39/93/153 40/98/154 52/99/155 51/94/156
f 40/39/157 41/31/158 53/34/159 52/40/160
f 41/31/161 42/32/162 54/33/163 53/34/164
f 42/32/165 43/37/166 55/38/167 54/33/168
f 43/37/169 44/43/170 56/44/171 55/38/172
f 44/101/173 45/102/174 57/103/175 56/104/176
f 45/102/177 46/107/178 58/108/179 57/103/180
f 46/54/181 47/46/182 59/49/183 58/55/184
f 47/46/185 48/47/186 60/48/187 59/49/188
f 48/47/189 37/52/190 49/53/191 60/48/192
f 49/61/193 50/62/194 61/63/195
f 50/62/196 51/64/197 61/63/198
f 51/64/199 52/66/200 61/63/201
f 52/66/202 53/68/203 61/63/204
f 53/68/205 54/70/206 61/63/207
f 54/70/208 55/72/209 61/63/210
f 55/72/211 56/73/212 61/63/213
f 56/73/214 57/71/215 61/63/216
f 57/71/217 58/69/218 61/63/219
f 58/69/220 59/67/221 61/63/222
f 59/67/223 60/65/224 61/63/225
f 60/65/226 49/61/227 61/63/228
