# This file uses centimeters as units for non-parametric coordinates.

mtllib Newspaper.mtl
g default
v -0.164506 0.035925 0.037472
v 0.071374 0.022040 0.206809
v -0.164569 0.042987 0.038138
v 0.071312 0.029102 0.207475
v -0.017250 0.059660 -0.165704
v 0.195847 0.071880 0.016382
v -0.017188 0.052598 -0.166370
v 0.202240 0.068975 0.015379
v -0.112724 0.030280 0.070551
v 0.030660 0.046406 -0.127856
v 0.030624 0.050378 -0.127481
v -0.112875 0.047199 0.072148
v 0.037840 0.021417 0.178640
v 0.037689 0.038336 0.180237
v 0.185862 0.047255 -0.018890
v 0.189459 0.045621 -0.019454
v -0.129919 0.035322 0.094916
v -0.120322 0.027947 0.080943
v 0.030242 0.019084 0.189032
v 0.020645 0.026459 0.203005
v -0.172304 0.032572 0.048059
v -0.179486 0.036473 0.058383
v 0.063577 0.018687 0.217396
v 0.056395 0.022588 0.227720
v -0.134926 0.023951 0.100959
v -0.125332 0.024883 0.087670
v 0.025232 0.016020 0.195759
v 0.015638 0.015089 0.209047
v -0.177435 0.027650 0.054804
v -0.187296 0.026996 0.068485
v 0.058445 0.013766 0.224140
v 0.048585 0.013111 0.237822
v -0.130158 0.013738 0.093480
v -0.126438 0.022979 0.089055
v 0.024126 0.014116 0.197144
v 0.020406 0.004876 0.201569
v -0.178560 0.024383 0.056103
v -0.182405 0.017349 0.060881
v 0.057320 0.010498 0.225440
v 0.053476 0.003464 0.230218
v -0.122796 0.011581 0.083047
v -0.121714 0.021387 0.082344
v 0.028850 0.012524 0.190433
v 0.027768 0.002718 0.191136
v -0.173692 0.021062 0.049049
v -0.174829 0.013885 0.050044
v 0.062189 0.007177 0.218385
v 0.061051 0.000000 0.219381
v -0.039336 0.036992 -0.148025
v -0.038731 0.041133 -0.149497
v 0.131949 0.042092 -0.076705
v 0.131344 0.037951 -0.075232
v -0.088303 0.038615 -0.181051
v -0.088771 0.031403 -0.179799
v 0.180396 0.040422 -0.070123
v 0.179927 0.033210 -0.068871
v -0.098764 0.042667 -0.053552
v -0.048299 0.035552 -0.018759
v 0.102265 0.026690 0.089329
v 0.137116 0.028782 0.115785
v 0.137179 0.021720 0.115119
v 0.102317 0.020913 0.088784
v -0.048247 0.029776 -0.019304
v -0.098701 0.035605 -0.054218
v 0.181871 0.035839 0.043377
v 0.187882 0.031841 0.043104
v -0.080512 0.023841 -0.028493
v -0.119179 0.021907 -0.054546
v -0.118359 0.029100 -0.055663
v -0.079667 0.030959 -0.029565
v 0.080837 0.026850 0.060832
v 0.118282 0.022953 0.081478
v 0.117462 0.015759 0.082595
v 0.079992 0.019732 0.061904
vt 0.437397 0.892507
vt 0.431886 0.893226
vt 0.423021 0.637094
vt 0.428532 0.636375
vt 0.126059 0.555384
vt 0.126059 0.298535
vt 0.478724 0.298535
vt 0.485962 0.560691
vt 0.416881 0.888434
vt 0.411371 0.888434
vt 0.403224 0.620322
vt 0.405620 0.616489
vt 0.182935 0.670214
vt 0.182935 0.891906
vt 0.021525 0.891906
vt 0.015256 0.662480
vt 0.945820 0.131031
vt 0.940069 0.126239
vt 0.988588 0.078319
vt 0.992901 0.084429
vt 0.485826 0.987119
vt 0.477800 0.789569
vt 0.487833 0.789569
vt 0.495859 0.987119
vt 0.017177 0.965459
vt 0.183895 0.965459
vt 0.402745 0.975648
vt 0.412808 0.975648
vt 0.009054 0.296927
vt 0.009054 0.562300
vt 0.439074 0.975888
vt 0.448898 0.974930
vt 0.424938 0.575996
vt 0.435001 0.575038
vt 0.613760 0.519633
vt 0.605973 0.443829
vt 0.652994 0.490432
vt 0.363930 0.581507
vt 0.368243 0.574798
vt 0.183895 0.618147
vt 0.078041 0.619663
vt 0.314570 0.891906
vt 0.314570 0.670214
vt 0.330140 0.670214
vt 0.330140 0.891906
vt 0.478724 0.089131
vt 0.126059 0.089131
vt 0.126059 0.033484
vt 0.478724 0.033484
vt 0.318260 0.965459
vt 0.334285 0.965459
vt 0.009054 0.083181
vt 0.009054 0.034609
vt 0.501310 0.630355
vt 0.491277 0.630355
vt 0.488042 0.611397
vt 0.494991 0.594116
vt 0.318260 0.618147
vt 0.334285 0.618147
vt 0.949534 0.410884
vt 0.959597 0.410884
vt 0.953247 0.447063
vt 0.946299 0.429812
vt 0.561553 0.083181
vt 0.561553 0.034609
vt 0.340402 0.670214
vt 0.340402 0.891906
vt 0.126059 0.016757
vt 0.478724 0.016757
vt 0.344800 0.965459
vt 0.009054 0.009037
vt 0.482052 0.598878
vt 0.483101 0.575008
vt 0.344800 0.618147
vt 0.941387 0.466111
vt 0.940309 0.442271
vt 0.561553 0.009037
vt 0.342677 0.670214
vt 0.342677 0.891906
vt 0.904911 0.118298
vt 0.904911 0.310494
vt 0.896629 0.310494
vt 0.896629 0.118298
vt 0.347176 0.965459
vt 0.909206 0.374253
vt 0.900661 0.374253
vt 0.477650 0.596093
vt 0.468425 0.586658
vt 0.347176 0.618147
vt 0.926652 0.454491
vt 0.935876 0.445026
vt 0.909206 0.073163
vt 0.900661 0.073163
vt 0.590957 0.888153
vt 0.525531 0.615807
vt 0.537334 0.612972
vt 0.602760 0.885318
vt 0.883658 0.310494
vt 0.883658 0.118298
vt 0.607219 0.979917
vt 0.619271 0.977022
vt 0.887339 0.374253
vt 0.471959 0.607803
vt 0.461986 0.604898
vt 0.504662 0.553010
vt 0.516714 0.550114
vt 0.920183 0.436281
vt 0.930126 0.433406
vt 0.887339 0.073163
vt 0.783737 0.890860
vt 0.749214 0.614769
vt 0.971826 0.622399
vt 0.975381 0.902512
vt 0.742534 0.153267
vt 0.763744 0.342856
vt 0.637782 0.381023
vt 0.595232 0.193757
vt 0.797639 0.959667
vt 0.990539 0.989679
vt 0.765518 0.390970
vt 0.641594 0.441452
vt 0.458691 0.771420
vt 0.468695 0.774205
vt 0.465041 0.943452
vt 0.455038 0.940817
vt 0.741407 0.550542
vt 0.990150 0.550975
vt 0.933480 0.228668
vt 0.923537 0.231423
vt 0.927251 0.004642
vt 0.937194 0.002007
vt 0.737495 0.109096
vt 0.571569 0.148797
vt 0.561553 0.296927
vt 0.935996 0.251670
vt 0.946059 0.251670
vt 0.549812 0.458885
vt 0.951211 0.051843
vn 0.367889 -0.358737 -0.857885
vn 0.367889 -0.358737 -0.857885
vn 0.367889 -0.358737 -0.857885
vn 0.367889 -0.358737 -0.857885
vn -0.049457 0.990972 0.124615
vn -0.049457 0.990972 0.124615
vn -0.049457 0.990972 0.124615
vn -0.049457 0.990972 0.124615
vn 0.510581 0.453087 -0.730766
vn 0.510581 0.453087 -0.730766
vn 0.510580 0.453087 -0.730767
vn 0.510580 0.453087 -0.730767
vn 0.065787 -0.988238 -0.138049
vn 0.065787 -0.988238 -0.138049
vn 0.065787 -0.988238 -0.138049
vn 0.065787 -0.988238 -0.138049
vn 0.346155 0.472196 0.810684
vn 0.346155 0.472196 0.810684
vn 0.346155 0.472196 0.810684
vn 0.346155 0.472196 0.810684
vn -0.811418 0.047764 -0.582511
vn -0.811418 0.047764 -0.582511
vn -0.811418 0.047764 -0.582511
vn -0.811418 0.047764 -0.582511
vn -0.005443 -0.987983 -0.154467
vn -0.005443 -0.987983 -0.154467
vn -0.005443 -0.987983 -0.154467
vn -0.005443 -0.987983 -0.154467
vn 0.631252 0.078403 -0.771605
vn 0.631252 0.078403 -0.771605
vn 0.631252 0.078403 -0.771605
vn 0.631252 0.078403 -0.771605
vn 0.038239 0.984764 0.169638
vn 0.038239 0.984764 0.169638
vn 0.038239 0.984764 0.169638
vn 0.038239 0.984764 0.169638
vn 0.536609 -0.244511 -0.807630
vn 0.536609 -0.244511 -0.807630
vn 0.536609 -0.244511 -0.807630
vn 0.536609 -0.244511 -0.807630
vn 0.112577 -0.241895 -0.963750
vn 0.112577 -0.241895 -0.963750
vn 0.112577 -0.241895 -0.963750
vn 0.112577 -0.241895 -0.963750
vn -0.930412 0.366438 0.007548
vn -0.930412 0.366438 0.007548
vn -0.930412 0.366438 0.007548
vn 0.250666 0.759032 -0.600864
vn 0.250666 0.759032 -0.600864
vn 0.250666 0.759032 -0.600864
vn 0.250666 0.759032 -0.600864
vn 0.040940 -0.986384 -0.159280
vn 0.040940 -0.986384 -0.159280
vn 0.040940 -0.986384 -0.159280
vn 0.040940 -0.986384 -0.159280
vn 0.065954 -0.982806 -0.172458
vn 0.065954 -0.982806 -0.172458
vn 0.065954 -0.982806 -0.172458
vn 0.065954 -0.982806 -0.172458
vn -0.189191 0.921531 0.339098
vn -0.189191 0.921531 0.339098
vn -0.189191 0.921531 0.339098
vn -0.189191 0.921531 0.339098
vn 0.048639 -0.972468 -0.227906
vn 0.048639 -0.972468 -0.227906
vn 0.048639 -0.972468 -0.227906
vn 0.048639 -0.972468 -0.227906
vn -0.204452 0.945763 0.252450
vn -0.204452 0.945763 0.252450
vn -0.204452 0.945763 0.252450
vn -0.204452 0.945763 0.252450
vn -0.811418 0.047762 -0.582511
vn -0.811418 0.047762 -0.582511
vn -0.811418 0.047762 -0.582511
vn -0.811418 0.047762 -0.582511
vn 0.140170 -0.976800 -0.161910
vn 0.140170 -0.976800 -0.161910
vn 0.140170 -0.976800 -0.161910
vn 0.140170 -0.976800 -0.161910
vn 0.811418 -0.047763 0.582511
vn 0.811418 -0.047763 0.582511
vn 0.811418 -0.047763 0.582511
vn 0.811418 -0.047763 0.582511
vn -0.078998 0.936483 0.341701
vn -0.078998 0.936483 0.341701
vn -0.078998 0.936483 0.341701
vn -0.078998 0.936483 0.341701
vn 0.163878 -0.938083 -0.305196
vn 0.163878 -0.938083 -0.305196
vn 0.163878 -0.938083 -0.305196
vn 0.163878 -0.938083 -0.305196
vn -0.458526 0.566006 0.685121
vn -0.458526 0.566006 0.685121
vn -0.458526 0.566006 0.685121
vn -0.458526 0.566006 0.685121
vn 0.185091 -0.900189 -0.394210
vn 0.185091 -0.900189 -0.394210
vn 0.185091 -0.900189 -0.394210
vn 0.185091 -0.900189 -0.394210
vn -0.379792 0.700969 0.603655
vn -0.379792 0.700969 0.603655
vn -0.379792 0.700969 0.603655
vn -0.379792 0.700969 0.603655
vn -0.811418 0.047763 -0.582511
vn -0.811418 0.047763 -0.582511
vn -0.811418 0.047763 -0.582511
vn -0.811418 0.047763 -0.582511
vn 0.256262 -0.903791 -0.342769
vn 0.256262 -0.903792 -0.342769
vn 0.256262 -0.903791 -0.342769
vn 0.256262 -0.903791 -0.342769
vn 0.811418 -0.047762 0.582511
vn 0.811418 -0.047762 0.582511
vn 0.811418 -0.047762 0.582511
vn 0.811418 -0.047762 0.582511
vn -0.399316 0.702085 0.589596
vn -0.399316 0.702085 0.589596
vn -0.399316 0.702085 0.589596
vn -0.399316 0.702085 0.589596
vn 0.400916 -0.679726 -0.614198
vn 0.400916 -0.679725 -0.614198
vn 0.400916 -0.679725 -0.614198
vn 0.400916 -0.679726 -0.614198
vn -0.466225 -0.653942 0.595814
vn -0.466225 -0.653942 0.595814
vn -0.466225 -0.653942 0.595814
vn -0.466225 -0.653942 0.595814
vn 0.428192 -0.554952 -0.713218
vn 0.428192 -0.554952 -0.713218
vn 0.428192 -0.554952 -0.713218
vn 0.428192 -0.554952 -0.713218
vn -0.422594 -0.669467 0.610924
vn -0.422594 -0.669467 0.610924
vn -0.422594 -0.669467 0.610924
vn -0.422594 -0.669467 0.610924
vn -0.811418 0.047762 -0.582511
vn -0.811418 0.047762 -0.582511
vn -0.811418 0.047762 -0.582511
vn -0.811418 0.047762 -0.582511
vn 0.508999 -0.559253 -0.654336
vn 0.508999 -0.559253 -0.654336
vn 0.508999 -0.559253 -0.654336
vn 0.508999 -0.559253 -0.654336
vn 0.811418 -0.047764 0.582511
vn 0.811418 -0.047764 0.582511
vn 0.811418 -0.047764 0.582511
vn 0.811418 -0.047764 0.582511
vn -0.510052 -0.663623 0.547222
vn -0.510052 -0.663623 0.547222
vn -0.510052 -0.663623 0.547222
vn -0.510052 -0.663623 0.547222
vn 0.149268 0.980539 -0.127526
vn 0.149268 0.980539 -0.127526
vn 0.149268 0.980539 -0.127526
vn 0.149268 0.980539 -0.127526
vn -0.135537 -0.984864 0.108043
vn -0.135537 -0.984864 0.108043
vn -0.135537 -0.984864 0.108043
vn -0.135537 -0.984864 0.108043
vn 0.157906 0.959693 -0.232496
vn 0.157906 0.959693 -0.232496
vn 0.157906 0.959693 -0.232496
vn 0.157906 0.959693 -0.232496
vn -0.151065 -0.976756 0.152074
vn -0.151065 -0.976756 0.152074
vn -0.151065 -0.976756 0.152074
vn -0.151065 -0.976756 0.152074
vn -0.811418 0.047763 -0.582511
vn -0.811418 0.047763 -0.582511
vn -0.811418 0.047763 -0.582511
vn -0.811418 0.047763 -0.582511
vn 0.261553 0.952235 -0.157606
vn 0.261553 0.952235 -0.157606
vn 0.261553 0.952235 -0.157606
vn 0.261553 0.952235 -0.157606
vn 0.811418 -0.047763 0.582511
vn 0.811418 -0.047763 0.582511
vn 0.811418 -0.047763 0.582511
vn 0.811418 -0.047763 0.582511
vn -0.175832 -0.975220 0.134273
vn -0.175832 -0.975220 0.134273
vn -0.175832 -0.975220 0.134273
vn -0.175832 -0.975220 0.134273
vn -0.033123 0.995706 0.086449
vn -0.033123 0.995706 0.086449
vn -0.033123 0.995706 0.086449
vn -0.033123 0.995706 0.086449
vn 0.042777 -0.993446 -0.105999
vn 0.042777 -0.993446 -0.105999
vn 0.042777 -0.993446 -0.105999
vn 0.042777 -0.993446 -0.105999
vn -0.085357 0.994823 0.055140
vn -0.085357 0.994824 0.055140
vn -0.085357 0.994823 0.055140
vn -0.085357 0.994823 0.055140
vn 0.121494 -0.991002 -0.056158
vn 0.121494 -0.991002 -0.056158
vn 0.121494 -0.991002 -0.056158
vn 0.121494 -0.991002 -0.056158
vn -0.971789 0.048958 -0.230714
vn -0.971789 0.048958 -0.230714
vn -0.971789 0.048958 -0.230714
vn -0.971789 0.048958 -0.230714
vn 0.025552 0.992170 0.122254
vn 0.025552 0.992170 0.122254
vn 0.025552 0.992170 0.122254
vn 0.025552 0.992170 0.122254
vn 0.925543 -0.020587 0.378082
vn 0.925543 -0.020587 0.378082
vn 0.925544 -0.020587 0.378081
vn 0.925543 -0.020587 0.378082
vn -0.054857 -0.988091 -0.143759
vn -0.054857 -0.988091 -0.143758
vn -0.054857 -0.988091 -0.143758
vn -0.054857 -0.988091 -0.143759
vn 0.048906 0.998338 -0.030502
vn 0.048906 0.998338 -0.030502
vn 0.048906 0.998338 -0.030502
vn 0.048906 0.998338 -0.030502
vn 0.099240 0.993442 -0.056779
vn 0.099240 0.993442 -0.056779
vn 0.099240 0.993442 -0.056779
vn 0.099240 0.993442 -0.056779
vn 0.099310 0.995040 0.005704
vn 0.099310 0.995040 0.005704
vn 0.099310 0.995040 0.005704
vn 0.099310 0.995040 0.005704
vn 0.811418 -0.047763 0.582511
vn 0.811418 -0.047763 0.582511
vn 0.811418 -0.047763 0.582511
vn 0.811418 -0.047763 0.582511
vn 0.010997 -0.999862 0.012428
vn 0.010997 -0.999862 0.012428
vn 0.010997 -0.999862 0.012428
vn 0.010997 -0.999862 0.012428
vn -0.041462 -0.998848 -0.024146
vn -0.041462 -0.998848 -0.024146
vn -0.041462 -0.998848 -0.024146
vn -0.041462 -0.998848 -0.024146
vn -0.077676 -0.995662 -0.051225
vn -0.077676 -0.995662 -0.051225
vn -0.077676 -0.995662 -0.051225
vn -0.077676 -0.995662 -0.051225
vn -0.811418 0.047764 -0.582511
vn -0.811418 0.047764 -0.582511
vn -0.811418 0.047764 -0.582511
vn -0.811418 0.047764 -0.582511
vn -0.044828 0.991784 0.119814
vn -0.044828 0.991784 0.119814
vn -0.044828 0.991784 0.119814
vn -0.044828 0.991784 0.119814
vn 0.754802 0.368424 0.542713
vn 0.754802 0.368424 0.542713
vn 0.754802 0.368424 0.542713
vn 0.754802 0.368424 0.542713
vn 0.913267 -0.402054 -0.065549
vn 0.913267 -0.402054 -0.065549
vn 0.913267 -0.402054 -0.065549
vn 0.043880 -0.996321 -0.073617
vn 0.043880 -0.996321 -0.073617
vn 0.043880 -0.996321 -0.073617
vn 0.043880 -0.996321 -0.073617
vn -0.883930 0.052056 -0.464713
vn -0.883930 0.052056 -0.464713
vn -0.883930 0.052056 -0.464713
vn -0.883930 0.052056 -0.464713
vn -0.059558 0.996749 0.054261
vn -0.059558 0.996749 0.054261
vn -0.059558 0.996749 0.054261
vn -0.059558 0.996749 0.054261
vn -0.017095 0.995625 0.091864
vn -0.017095 0.995625 0.091864
vn -0.017095 0.995625 0.091864
vn -0.017095 0.995625 0.091864
vn 0.041117 0.990845 0.128588
vn 0.041117 0.990845 0.128588
vn 0.041117 0.990845 0.128588
vn 0.041117 0.990845 0.128588
vn 0.925416 -0.071310 0.372184
vn 0.925416 -0.071310 0.372184
vn 0.925416 -0.071310 0.372184
vn 0.925416 -0.071310 0.372184
vn -0.007236 -0.992108 -0.125182
vn -0.007236 -0.992108 -0.125181
vn -0.007236 -0.992108 -0.125181
vn -0.007236 -0.992108 -0.125182
vn 0.028507 -0.993565 -0.109613
vn 0.028507 -0.993565 -0.109613
vn 0.028507 -0.993565 -0.109613
vn 0.028507 -0.993565 -0.109613
s off
g Newspaper
usemtl initialShadingGroup
f 49/1/1 50/2/2 51/3/3 52/4/4
f 11/5/5 58/6/6 59/7/7 15/8/8
f 10/9/9 11/10/10 15/11/11 16/12/12
f 62/13/13 63/14/14 10/15/15 16/16/16
f 65/17/17 66/18/18 8/19/19 6/20/20
f 7/21/21 64/22/22 57/23/23 5/24/24
f 7/25/25 10/15/26 63/14/27 64/26/28
f 5/27/29 11/10/30 10/9/31 7/28/32
f 57/29/33 58/6/34 11/5/35 5/30/36
f 53/31/37 50/2/38 49/1/39 54/32/40
f 52/4/41 51/3/42 55/33/43 56/34/44
f 15/35/45 65/36/46 6/37/47
f 16/12/48 15/11/49 6/38/50 8/39/51
f 61/40/52 62/13/53 16/16/54 66/41/55
f 9/42/56 13/43/57 19/44/58 18/45/59
f 14/46/60 12/47/61 17/48/62 20/49/63
f 1/50/64 9/42/65 18/45/66 21/51/67
f 12/47/68 3/52/69 22/53/70 17/48/71
f 3/54/72 1/55/73 21/56/74 22/57/75
f 13/43/76 2/58/77 23/59/78 19/44/79
f 2/60/80 4/61/81 24/62/82 23/63/83
f 4/64/84 14/46/85 20/49/86 24/65/87
f 18/45/88 19/44/89 27/66/90 26/67/91
f 20/49/92 17/48/93 25/68/94 28/69/95
f 21/51/96 18/45/97 26/67/98 29/70/99
f 17/48/100 22/53/101 30/71/102 25/68/103
f 22/57/104 21/56/105 29/72/106 30/73/107
f 19/44/108 23/59/109 31/74/110 27/66/111
f 23/63/112 24/62/113 32/75/114 31/76/115
f 24/65/116 20/49/117 28/69/118 32/77/119
f 26/67/120 27/66/121 35/78/122 34/79/123
f 28/80/124 25/81/125 33/82/126 36/83/127
f 29/70/128 26/67/129 34/79/130 37/84/131
f 25/81/132 30/85/133 38/86/134 33/82/135
f 30/73/136 29/72/137 37/87/138 38/88/139
f 27/66/140 31/74/141 39/89/142 35/78/143
f 31/76/144 32/75/145 40/90/146 39/91/147
f 32/92/148 28/80/149 36/83/150 40/93/151
f 34/94/152 35/95/153 43/96/154 42/97/155
f 36/83/156 33/82/157 41/98/158 44/99/159
f 37/100/160 34/94/161 42/97/162 45/101/163
f 33/82/164 38/86/165 46/102/166 41/98/167
f 38/88/168 37/87/169 45/103/170 46/104/171
f 35/95/172 39/105/173 47/106/174 43/96/175
f 39/91/176 40/90/177 48/107/178 47/108/179
f 40/93/180 36/83/181 44/99/182 48/109/183
f 70/110/184 71/111/185 51/112/186 50/113/187
f 74/114/188 67/115/189 49/116/190 52/117/191
f 69/118/192 70/110/193 50/113/194 53/119/195
f 67/115/196 68/120/197 54/121/198 49/116/199
f 68/122/200 69/123/201 53/124/202 54/125/203
f 71/111/204 72/126/205 55/127/206 51/112/207
f 72/128/208 73/129/209 56/130/210 55/131/211
f 73/132/212 74/114/213 52/117/214 56/133/215
f 3/52/216 12/47/217 58/6/218 57/29/219
f 59/7/220 58/6/221 12/47/222 14/46/223
f 60/134/224 59/7/225 14/46/226 4/64/227
f 2/60/228 61/135/229 60/136/230 4/61/231
f 13/43/232 62/13/233 61/40/234 2/58/235
f 9/42/236 63/14/237 62/13/238 13/43/239
f 64/26/240 63/14/241 9/42/242 1/50/243
f 57/23/244 64/22/245 1/55/246 3/54/247
f 15/8/248 59/7/249 60/134/250 65/137/251
f 60/136/252 61/135/253 66/18/254 65/17/255
f 66/18/256 16/138/257 8/19/258
f 41/98/259 46/102/260 68/120/261 67/115/262
f 46/104/263 45/103/264 69/123/265 68/122/266
f 45/101/267 42/97/268 70/110/269 69/118/270
f 42/97/271 43/96/272 71/111/273 70/110/274
f 43/96/275 47/106/276 72/126/277 71/111/278
f 47/108/279 48/107/280 73/129/281 72/128/282
f 48/109/283 44/99/284 74/114/285 73/132/286
f 44/99/287 41/98/288 67/115/289 74/114/290
