# This file uses millimeters as units for non-parametric coordinates.

mtllib Selected Button.mtl
g default
v 0.003318 -0.010097 0.001011
v 0.006275 -0.008578 0.001011
v 0.008619 -0.006219 0.001011
v 0.010119 -0.003251 0.001011
v 0.010628 0.000035 0.001011
v 0.010097 0.003317 0.001011
v 0.008578 0.006275 0.001011
v 0.006219 0.008619 0.001011
v 0.003251 0.010119 0.001011
v -0.000035 0.010628 0.001011
v -0.003318 0.010097 0.001011
v -0.006275 0.008577 0.001011
v -0.008619 0.006219 0.001011
v -0.010119 0.003251 0.001011
v -0.010628 -0.000035 0.001011
v -0.010097 -0.003318 0.001011
v -0.008578 -0.006275 0.001011
v -0.006218 -0.008619 0.001011
v -0.003251 -0.010119 0.001011
v 0.000035 -0.010628 0.001011
v 0.000000 -0.000000 0.001011
v 0.003965 -0.012068 -0.001011
v 0.007500 -0.010252 -0.001011
v 0.010301 -0.007433 -0.001011
v 0.012094 -0.003885 -0.001011
v 0.012703 0.000042 -0.001011
v 0.012068 0.003965 -0.001011
v 0.010252 0.007500 -0.001011
v 0.007432 0.010301 -0.001011
v 0.003886 0.012094 -0.001011
v -0.000042 0.012703 -0.001011
v -0.003965 0.012068 -0.001011
v -0.007500 0.010252 -0.001011
v -0.010301 0.007432 -0.001011
v -0.012094 0.003886 -0.001011
v -0.012703 -0.000042 -0.001011
v -0.012068 -0.003965 -0.001011
v -0.010252 -0.007500 -0.001011
v -0.007433 -0.010301 -0.001011
v -0.003885 -0.012094 -0.001011
v 0.000042 -0.012703 -0.001011
v 0.003965 -0.012068 -0.008185
v 0.007500 -0.010252 -0.008185
v 0.010301 -0.007433 -0.008185
v 0.012094 -0.003885 -0.008185
v 0.012703 0.000042 -0.008185
v 0.012068 0.003965 -0.008185
v 0.010252 0.007500 -0.008185
v 0.007432 0.010301 -0.008185
v 0.003886 0.012094 -0.008185
v -0.000042 0.012703 -0.008185
v -0.003965 0.012068 -0.008185
v -0.007500 0.010252 -0.008185
v -0.010301 0.007432 -0.008185
v -0.012094 0.003886 -0.008185
v -0.012703 -0.000042 -0.008185
v -0.012068 -0.003965 -0.008185
v -0.010252 -0.007500 -0.008185
v -0.007433 -0.010301 -0.008185
v -0.003885 -0.012094 -0.008185
v 0.000042 -0.012703 -0.008185
vt 0.570899 0.153153
vt 0.570899 0.068511
vt 0.744128 0.068511
vt 0.744128 0.153153
vt 0.522095 0.169557
vt 0.522095 0.098745
vt 0.570899 0.001992
vt 0.744128 0.001992
vt 0.570899 0.247621
vt 0.744128 0.247621
vt 0.522095 0.248602
vt 0.570899 0.342683
vt 0.744128 0.342683
vt 0.522095 0.328130
vt 0.570899 0.429018
vt 0.744128 0.429018
vt 0.522095 0.400372
vt 0.570899 0.498189
vt 0.744128 0.498189
vt 0.522095 0.458243
vt 0.857100 0.846857
vt 0.857100 0.931491
vt 0.683870 0.931491
vt 0.683870 0.846857
vt 0.905902 0.830445
vt 0.905902 0.901261
vt 0.857100 0.998008
vt 0.683870 0.998008
vt 0.857100 0.752380
vt 0.683870 0.752380
vt 0.905902 0.751404
vt 0.857100 0.657324
vt 0.683870 0.657324
vt 0.905902 0.671868
vt 0.857100 0.570982
vt 0.683870 0.570982
vt 0.905902 0.599634
vt 0.857100 0.501812
vt 0.683870 0.501812
vt 0.905902 0.541758
vt 0.629498 0.587951
vt 0.629498 0.674290
vt 0.456269 0.674290
vt 0.456269 0.587951
vt 0.678301 0.616598
vt 0.678301 0.688833
vt 0.629498 0.769349
vt 0.456269 0.769349
vt 0.629498 0.518777
vt 0.678301 0.558722
vt 0.678301 0.768367
vt 0.629498 0.863817
vt 0.456269 0.863817
vt 0.678301 0.847410
vt 0.629498 0.948458
vt 0.456269 0.948458
vt 0.678301 0.918222
vt 0.277470 0.603411
vt 0.277470 0.518777
vt 0.450699 0.518777
vt 0.450699 0.603411
vt 0.228666 0.619822
vt 0.228666 0.549008
vt 0.277470 0.697882
vt 0.450699 0.697882
vt 0.228666 0.698861
vt 0.277470 0.792942
vt 0.450699 0.792942
vt 0.228666 0.778397
vt 0.277470 0.879283
vt 0.450699 0.879283
vt 0.228666 0.850637
vt 0.277470 0.948454
vt 0.228666 0.908506
vt 0.012815 0.184054
vt 0.047861 0.111819
vt 0.258385 0.258572
vt 0.103514 0.053943
vt 0.001808 0.263588
vt 0.174326 0.016103
vt 0.015916 0.342631
vt 0.253371 0.001992
vt 0.053754 0.413443
vt 0.332899 0.013005
vt 0.111631 0.469098
vt 0.405142 0.048049
vt 0.183865 0.504147
vt 0.463012 0.103703
vt 0.263401 0.515154
vt 0.500857 0.174517
vt 0.342441 0.501048
vt 0.514965 0.253556
vt 0.413257 0.463201
vt 0.503957 0.333092
vt 0.468907 0.405332
vn 0.217809 -0.662918 0.716310
vn 0.412006 -0.563173 0.716301
vn 0.412010 -0.563170 0.716301
vn 0.217816 -0.662915 0.716310
vn 0.565878 -0.408295 0.716295
vn 0.565880 -0.408292 0.716295
vn 0.664362 -0.213439 0.716287
vn 0.664359 -0.213448 0.716287
vn 0.697793 0.002302 0.716296
vn 0.697793 0.002306 0.716296
vn 0.662923 0.217839 0.716296
vn 0.662925 0.217830 0.716296
vn 0.563184 0.412023 0.716283
vn 0.563183 0.412024 0.716283
vn 0.408305 0.565890 0.716280
vn 0.408309 0.565887 0.716280
vn 0.213463 0.664348 0.716292
vn 0.213462 0.664349 0.716292
vn -0.002297 0.697787 0.716301
vn -0.002299 0.697787 0.716301
vn -0.217830 0.662927 0.716294
vn -0.217834 0.662926 0.716294
vn -0.412013 0.563176 0.716295
vn -0.412018 0.563173 0.716295
vn -0.565870 0.408291 0.716303
vn -0.565865 0.408298 0.716303
vn -0.664342 0.213448 0.716303
vn -0.664344 0.213443 0.716303
vn -0.697788 -0.002301 0.716300
vn -0.697789 -0.002295 0.716300
vn -0.662914 -0.217817 0.716311
vn -0.662912 -0.217824 0.716311
vn -0.563155 -0.412015 0.716310
vn -0.563157 -0.412012 0.716310
vn -0.408279 -0.565866 0.716313
vn -0.408274 -0.565870 0.716313
vn -0.213428 -0.664336 0.716314
vn -0.213431 -0.664335 0.716314
vn 0.002294 -0.697770 0.716318
vn 0.002300 -0.697770 0.716318
vn 0.000000 0.000000 1.000000
vn 0.000000 0.000000 1.000000
vn 0.000000 0.000000 1.000000
vn 0.000000 0.000000 1.000000
vn 0.000000 0.000000 1.000000
vn 0.000000 0.000000 1.000000
vn -0.000000 0.000000 1.000000
vn 0.000000 0.000000 1.000000
vn 0.000000 0.000000 1.000000
vn 0.000000 0.000000 1.000000
vn 0.000000 0.000000 1.000000
vn 0.000000 0.000000 1.000000
vn 0.000000 0.000000 1.000000
vn -0.000000 0.000000 1.000000
vn -0.000000 0.000000 1.000000
vn 0.000000 0.000000 1.000000
vn 0.000000 0.000000 1.000000
vn 0.000000 0.000000 1.000000
vn -0.000000 0.000000 1.000000
vn -0.000000 0.000000 1.000000
vn 0.000000 0.000000 1.000000
vn 0.456928 -0.889504 0.000000
vn 0.456928 -0.889504 0.000000
vn 0.456928 -0.889504 0.000000
vn 0.456928 -0.889504 0.000000
vn 0.709419 -0.704787 0.000000
vn 0.709419 -0.704787 0.000000
vn 0.709419 -0.704787 0.000000
vn 0.709419 -0.704787 0.000000
vn 0.892515 -0.451019 0.000000
vn 0.892515 -0.451019 0.000000
vn 0.892515 -0.451019 0.000000
vn 0.892515 -0.451019 0.000000
vn 0.988196 -0.153198 0.000000
vn 0.988196 -0.153198 0.000000
vn 0.988196 -0.153198 0.000000
vn 0.988196 -0.153198 0.000000
vn 0.987166 0.159700 0.000000
vn 0.987166 0.159700 0.000000
vn 0.987166 0.159700 0.000000
vn 0.987166 0.159700 0.000000
vn 0.889477 0.456981 0.000000
vn 0.889477 0.456981 0.000000
vn 0.889477 0.456981 0.000000
vn 0.889477 0.456981 0.000000
vn 0.704786 0.709420 0.000000
vn 0.704786 0.709420 0.000000
vn 0.704786 0.709420 0.000000
vn 0.704786 0.709420 0.000000
vn 0.451064 0.892492 0.000000
vn 0.451064 0.892492 0.000000
vn 0.451064 0.892492 0.000000
vn 0.451064 0.892492 0.000000
vn 0.153242 0.988189 0.000000
vn 0.153242 0.988189 0.000000
vn 0.153242 0.988189 0.000000
vn 0.153242 0.988189 0.000000
vn -0.159739 0.987159 0.000000
vn -0.159739 0.987159 0.000000
vn -0.159739 0.987159 0.000000
vn -0.159739 0.987159 0.000000
vn -0.456926 0.889505 0.000000
vn -0.456926 0.889505 0.000000
vn -0.456926 0.889505 0.000000
vn -0.456926 0.889505 0.000000
vn -0.709428 0.704778 0.000000
vn -0.709428 0.704778 0.000000
vn -0.709428 0.704778 0.000000
vn -0.709428 0.704778 0.000000
vn -0.892487 0.451073 0.000000
vn -0.892487 0.451073 0.000000
vn -0.892487 0.451073 0.000000
vn -0.892487 0.451073 0.000000
vn -0.988202 0.153157 0.000000
vn -0.988202 0.153157 0.000000
vn -0.988202 0.153157 0.000000
vn -0.988202 0.153157 0.000000
vn -0.987173 -0.159654 0.000000
vn -0.987173 -0.159654 0.000000
vn -0.987173 -0.159654 0.000000
vn -0.987173 -0.159654 0.000000
vn -0.889485 -0.456964 0.000000
vn -0.889485 -0.456964 0.000000
vn -0.889485 -0.456964 0.000000
vn -0.889485 -0.456964 0.000000
vn -0.704780 -0.709426 0.000000
vn -0.704780 -0.709426 0.000000
vn -0.704780 -0.709426 0.000000
vn -0.704780 -0.709426 0.000000
vn -0.451028 -0.892510 0.000000
vn -0.451028 -0.892510 0.000000
vn -0.451028 -0.892510 0.000000
vn -0.451028 -0.892510 0.000000
vn -0.153194 -0.988196 0.000000
vn -0.153194 -0.988196 0.000000
vn -0.153194 -0.988196 0.000000
vn -0.153194 -0.988196 0.000000
vn 0.159694 -0.987167 0.000000
vn 0.159694 -0.987167 0.000000
vn 0.159694 -0.987167 0.000000
vn 0.159694 -0.987167 0.000000
s 1
g polySurface265
usemtl lambert36SG
f 22/42/1 23/41/2 2/45/3 1/46/4
f 23/41/2 24/49/5 3/50/6 2/45/3
f 24/2/5 25/1/7 4/5/8 3/6/6
f 25/1/7 26/9/9 5/11/10 4/5/8
f 26/9/9 27/12/11 6/14/12 5/11/10
f 27/12/11 28/15/13 7/17/14 6/14/12
f 28/15/13 29/18/15 8/20/16 7/17/14
f 29/59/15 30/58/17 9/62/18 8/63/16
f 30/58/17 31/64/19 10/66/20 9/62/18
f 31/64/19 32/67/21 11/69/22 10/66/20
f 32/67/21 33/70/23 12/72/24 11/69/22
f 33/70/23 34/73/25 13/74/26 12/72/24
f 34/22/25 35/21/27 14/25/28 13/26/26
f 35/21/27 36/29/29 15/31/30 14/25/28
f 36/29/29 37/32/31 16/34/32 15/31/30
f 37/32/31 38/35/33 17/37/34 16/34/32
f 38/35/33 39/38/35 18/40/36 17/37/34
f 39/55/35 40/52/37 19/54/38 18/57/36
f 40/52/37 41/47/39 20/51/40 19/54/38
f 41/47/39 22/42/1 1/46/4 20/51/40
s 2
f 1/75/41 2/76/42 21/77/43
f 2/76/42 3/78/44 21/77/43
f 3/78/44 4/80/45 21/77/43
f 4/80/45 5/82/46 21/77/43
f 5/82/46 6/84/47 21/77/43
f 6/84/47 7/86/48 21/77/43
f 7/86/48 8/88/49 21/77/43
f 8/88/49 9/90/50 21/77/43
f 9/90/50 10/92/51 21/77/43
f 10/92/51 11/94/52 21/77/43
f 11/94/52 12/95/53 21/77/43
f 12/95/53 13/93/54 21/77/43
f 13/93/54 14/91/55 21/77/43
f 14/91/55 15/89/56 21/77/43
f 15/89/56 16/87/57 21/77/43
f 16/87/57 17/85/58 21/77/43
f 17/85/58 18/83/59 21/77/43
f 18/83/59 19/81/60 21/77/43
f 19/81/60 20/79/61 21/77/43
f 20/79/61 1/75/41 21/77/43
s off
f 23/41/62 22/42/63 42/43/64 43/44/65
f 24/2/66 23/7/67 43/8/68 44/3/69
f 25/1/70 24/2/71 44/3/72 45/4/73
f 26/9/74 25/1/75 45/4/76 46/10/77
f 27/12/78 26/9/79 46/10/80 47/13/81
f 28/15/82 27/12/83 47/13/84 48/16/85
f 29/18/86 28/15/87 48/16/88 49/19/89
f 30/58/90 29/59/91 49/60/92 50/61/93
f 31/64/94 30/58/95 50/61/96 51/65/97
f 32/67/98 31/64/99 51/65/100 52/68/101
f 33/70/102 32/67/103 52/68/104 53/71/105
f 34/22/106 33/27/107 53/28/108 54/23/109
f 35/21/110 34/22/111 54/23/112 55/24/113
f 36/29/114 35/21/115 55/24/116 56/30/117
f 37/32/118 36/29/119 56/30/120 57/33/121
f 38/35/122 37/32/123 57/33/124 58/36/125
f 39/38/126 38/35/127 58/36/128 59/39/129
f 40/52/130 39/55/131 59/56/132 60/53/133
f 41/47/134 40/52/135 60/53/136 61/48/137
f 22/42/138 41/47/139 61/48/140 42/43/141
