# This file uses centimeters as units for non-parametric coordinates.

mtllib Spike_Spikes.mtl
g default
v -0.043933 -0.422573 0.129521
v 0.043933 -0.422573 0.129521
v -0.129521 -0.422573 0.043933
v -0.129521 -0.422573 -0.043933
v 0.129521 -0.422573 0.043933
v 0.129521 -0.422573 -0.043933
v -0.043933 -0.422573 -0.129521
v 0.043933 -0.422573 -0.129521
v -0.097670 -0.422573 0.097670
v 0.097670 -0.422573 0.097670
v 0.097670 -0.422573 -0.097670
v -0.097670 -0.422573 -0.097670
v -0.377697 -0.422573 0.464123
v -0.288971 -0.422573 0.464123
v -0.464123 -0.422573 0.377697
v -0.464123 -0.422573 0.288971
v -0.202545 -0.422573 0.377697
v -0.202545 -0.422573 0.288971
v -0.377697 -0.422573 0.202545
v -0.288971 -0.422573 0.202545
v -0.431957 -0.422573 0.431957
v -0.234707 -0.422573 0.431957
v -0.234709 -0.422573 0.234709
v -0.431957 -0.422573 0.234709
v -0.377048 -0.422573 -0.203588
v -0.289618 -0.422573 -0.203588
v -0.462215 -0.422573 -0.288754
v -0.462215 -0.422573 -0.376186
v -0.204453 -0.422573 -0.288754
v -0.204453 -0.422573 -0.376186
v -0.377048 -0.422573 -0.461353
v -0.289618 -0.422573 -0.461353
v -0.430519 -0.422573 -0.235283
v -0.236145 -0.422573 -0.235283
v -0.236145 -0.422573 -0.429657
v -0.430519 -0.422573 -0.429657
v 0.290281 -0.422573 -0.204712
v 0.377537 -0.422573 -0.204712
v 0.205288 -0.422573 -0.289705
v 0.205288 -0.422573 -0.376961
v 0.462528 -0.422573 -0.289705
v 0.462528 -0.422573 -0.376961
v 0.290281 -0.422573 -0.461956
v 0.377537 -0.422573 -0.461956
v 0.236917 -0.422573 -0.236341
v 0.430901 -0.422573 -0.236341
v 0.430901 -0.422573 -0.430325
v 0.236917 -0.422573 -0.430325
v 0.289816 -0.422573 0.463326
v 0.378002 -0.422573 0.463326
v 0.203915 -0.422573 0.377426
v 0.203915 -0.422573 0.289240
v 0.463902 -0.422573 0.377426
v 0.463902 -0.422573 0.289240
v 0.289816 -0.422573 0.203341
v 0.378002 -0.422573 0.203341
v 0.235882 -0.422573 0.431358
v 0.431934 -0.422573 0.431358
v 0.431934 -0.422573 0.235308
v 0.235882 -0.422573 0.235308
v 0.000000 0.079041 0.000000
v -0.333332 0.079041 0.333332
v -0.333332 0.079041 -0.332470
v 0.333908 0.079041 -0.333332
v 0.333908 0.079041 0.333332
vt 0.208808 0.001798
vt 0.182797 0.298782
vt 0.156787 0.001798
vt 0.240624 0.001798
vt 0.124971 0.001798
vt 0.331592 0.001798
vt 0.305581 0.298782
vt 0.279571 0.001798
vt 0.363407 0.001798
vt 0.247755 0.001798
vt 0.702713 0.001798
vt 0.676448 0.298782
vt 0.650183 0.001798
vt 0.734840 0.001798
vt 0.618056 0.001798
vt 0.827446 0.001798
vt 0.801181 0.298782
vt 0.774916 0.001798
vt 0.859573 0.001798
vt 0.742789 0.001798
vt 0.845133 0.302774
vt 0.819251 0.599759
vt 0.793368 0.302774
vt 0.876791 0.302774
vt 0.761710 0.302774
vt 0.723916 0.302774
vt 0.698034 0.599759
vt 0.672152 0.302774
vt 0.755575 0.302774
vt 0.640493 0.302774
vt 0.360563 0.302774
vt 0.334733 0.599759
vt 0.308903 0.302774
vt 0.392157 0.302774
vt 0.277308 0.302774
vt 0.239579 0.302774
vt 0.213749 0.599759
vt 0.187919 0.302774
vt 0.271173 0.302774
vt 0.156324 0.302774
vt 0.209113 0.603750
vt 0.183008 0.900735
vt 0.156902 0.603750
vt 0.241045 0.603750
vt 0.124971 0.603750
vt 0.331897 0.603750
vt 0.305792 0.900735
vt 0.279686 0.603750
vt 0.363829 0.603750
vt 0.247755 0.603750
vt 0.085829 0.001798
vt 0.059818 0.298782
vt 0.033808 0.001798
vt 0.117645 0.001798
vt 0.001992 0.001798
vt 0.402355 0.298782
vt 0.428365 0.001798
vt 0.454376 0.298782
vt 0.370539 0.298782
vt 0.486192 0.298782
vt 0.577980 0.001798
vt 0.551715 0.298782
vt 0.525450 0.001798
vt 0.610107 0.001798
vt 0.493323 0.001798
vt 0.899649 0.298782
vt 0.925914 0.001798
vt 0.952179 0.298782
vt 0.867522 0.298782
vt 0.984306 0.298782
vt 0.966349 0.302774
vt 0.940467 0.599759
vt 0.914585 0.302774
vt 0.998008 0.302774
vt 0.882927 0.302774
vt 0.550935 0.599759
vt 0.576817 0.302774
vt 0.602700 0.599759
vt 0.519277 0.599759
vt 0.634358 0.599759
vt 0.481547 0.302774
vt 0.455717 0.599759
vt 0.429887 0.302774
vt 0.513142 0.302774
vt 0.398293 0.302774
vt 0.066935 0.599759
vt 0.092764 0.302774
vt 0.118594 0.599759
vt 0.035340 0.599759
vt 0.150189 0.599759
vt 0.086135 0.603750
vt 0.060029 0.900735
vt 0.033924 0.603750
vt 0.118066 0.603750
vt 0.001992 0.603750
vt 0.402470 0.900735
vt 0.428576 0.603750
vt 0.454681 0.900735
vt 0.370539 0.900735
vt 0.486613 0.900735
vn 0.000000 0.250009 0.968243
vn 0.000000 0.250009 0.968243
vn 0.000000 0.250009 0.968243
vn -0.968243 0.250009 0.000000
vn -0.968243 0.250009 0.000000
vn -0.968243 0.250009 0.000000
vn 0.968243 0.250009 0.000000
vn 0.968243 0.250009 0.000000
vn 0.968243 0.250009 0.000000
vn 0.000000 0.250009 -0.968243
vn 0.000000 0.250009 -0.968243
vn 0.000000 0.250009 -0.968243
vn -0.831173 0.257764 0.492655
vn -0.831173 0.257764 0.492655
vn -0.831173 0.257764 0.492655
vn 0.492655 0.257764 0.831173
vn 0.492655 0.257764 0.831173
vn 0.492655 0.257764 0.831173
vn 0.831173 0.257764 -0.492656
vn 0.831172 0.257764 -0.492656
vn 0.831173 0.257764 -0.492656
vn -0.492656 0.257765 -0.831172
vn -0.492656 0.257764 -0.831172
vn -0.492656 0.257764 -0.831172
vn 0.492656 0.257765 -0.831172
vn 0.492656 0.257764 -0.831172
vn 0.492656 0.257765 -0.831172
vn 0.831172 0.257764 0.492656
vn 0.831172 0.257764 0.492656
vn 0.831172 0.257764 0.492656
vn -0.492656 0.257764 0.831173
vn -0.492655 0.257764 0.831173
vn -0.492655 0.257764 0.831173
vn -0.831173 0.257764 -0.492655
vn -0.831173 0.257764 -0.492655
vn -0.831173 0.257764 -0.492655
vn 0.000000 0.252300 0.967649
vn 0.000000 0.252300 0.967649
vn 0.000000 0.252300 0.967649
vn -0.967649 0.252300 0.000000
vn -0.967649 0.252300 0.000000
vn -0.967649 0.252300 0.000000
vn 0.967649 0.252300 0.000000
vn 0.967649 0.252300 0.000000
vn 0.967649 0.252300 0.000000
vn 0.000000 0.252300 -0.967649
vn 0.000000 0.252300 -0.967649
vn 0.000000 0.252300 -0.967649
vn -0.830631 0.260116 0.492333
vn -0.830631 0.260116 0.492333
vn -0.830631 0.260116 0.492333
vn 0.492334 0.260116 0.830631
vn 0.492334 0.260116 0.830631
vn 0.492334 0.260116 0.830631
vn 0.830630 0.260117 -0.492335
vn 0.830630 0.260117 -0.492335
vn 0.830630 0.260117 -0.492335
vn -0.492335 0.260116 -0.830630
vn -0.492335 0.260116 -0.830630
vn -0.492335 0.260116 -0.830630
vn 0.492335 0.260116 -0.830630
vn 0.492336 0.260116 -0.830630
vn 0.492336 0.260116 -0.830630
vn 0.830630 0.260116 0.492334
vn 0.830630 0.260116 0.492334
vn 0.830630 0.260116 0.492334
vn -0.492334 0.260116 0.830631
vn -0.492334 0.260116 0.830631
vn -0.492334 0.260116 0.830631
vn -0.830630 0.260116 -0.492334
vn -0.830630 0.260116 -0.492334
vn -0.830630 0.260116 -0.492334
vn 0.000000 0.248851 0.968542
vn 0.000000 0.248851 0.968542
vn 0.000000 0.248851 0.968542
vn -0.968542 0.248851 0.000000
vn -0.968542 0.248851 0.000000
vn -0.968542 0.248851 0.000000
vn 0.968542 0.248851 0.000000
vn 0.968542 0.248851 0.000000
vn 0.968542 0.248851 0.000000
vn 0.000000 0.248851 -0.968542
vn 0.000000 0.248851 -0.968542
vn 0.000000 0.248851 -0.968542
vn -0.831446 0.256575 0.492816
vn -0.831446 0.256575 0.492816
vn -0.831446 0.256575 0.492816
vn 0.492816 0.256575 0.831445
vn 0.492816 0.256575 0.831445
vn 0.492816 0.256575 0.831445
vn 0.831445 0.256575 -0.492818
vn 0.831445 0.256575 -0.492818
vn 0.831445 0.256575 -0.492818
vn -0.492817 0.256575 -0.831445
vn -0.492817 0.256575 -0.831445
vn -0.492817 0.256575 -0.831445
vn 0.492817 0.256575 -0.831445
vn 0.492817 0.256575 -0.831445
vn 0.492817 0.256575 -0.831445
vn 0.831445 0.256575 0.492817
vn 0.831445 0.256575 0.492817
vn 0.831445 0.256575 0.492817
vn -0.492816 0.256575 0.831446
vn -0.492816 0.256575 0.831445
vn -0.492816 0.256575 0.831445
vn -0.831445 0.256575 -0.492817
vn -0.831445 0.256575 -0.492817
vn -0.831445 0.256575 -0.492817
vn 0.000000 0.248379 0.968663
vn 0.000000 0.248379 0.968663
vn 0.000000 0.248379 0.968663
vn -0.968663 0.248379 0.000000
vn -0.968663 0.248379 0.000000
vn -0.968663 0.248379 0.000000
vn 0.968663 0.248379 0.000000
vn 0.968663 0.248379 0.000000
vn 0.968663 0.248379 0.000000
vn 0.000000 0.248379 -0.968663
vn 0.000000 0.248379 -0.968663
vn 0.000000 0.248379 -0.968663
vn -0.831555 0.256091 0.492882
vn -0.831555 0.256091 0.492882
vn -0.831555 0.256091 0.492882
vn 0.492882 0.256091 0.831556
vn 0.492882 0.256091 0.831556
vn 0.492882 0.256091 0.831556
vn 0.831555 0.256091 -0.492882
vn 0.831555 0.256091 -0.492882
vn 0.831555 0.256091 -0.492882
vn -0.492882 0.256091 -0.831555
vn -0.492882 0.256091 -0.831556
vn -0.492882 0.256091 -0.831556
vn 0.492882 0.256091 -0.831555
vn 0.492882 0.256091 -0.831555
vn 0.492882 0.256091 -0.831555
vn 0.831556 0.256091 0.492882
vn 0.831556 0.256091 0.492882
vn 0.831556 0.256091 0.492882
vn -0.492882 0.256091 0.831556
vn -0.492882 0.256091 0.831556
vn -0.492882 0.256091 0.831556
vn -0.831555 0.256091 -0.492882
vn -0.831555 0.256091 -0.492882
vn -0.831555 0.256091 -0.492883
vn 0.000000 0.250863 0.968023
vn 0.000000 0.250863 0.968023
vn 0.000000 0.250863 0.968023
vn -0.968023 0.250863 0.000000
vn -0.968023 0.250863 0.000000
vn -0.968023 0.250863 0.000000
vn 0.968023 0.250863 0.000000
vn 0.968023 0.250863 0.000000
vn 0.968023 0.250863 0.000000
vn 0.000000 0.250863 -0.968023
vn 0.000000 0.250863 -0.968023
vn 0.000000 0.250863 -0.968023
vn -0.830971 0.258641 0.492536
vn -0.830971 0.258641 0.492536
vn -0.830971 0.258641 0.492536
vn 0.492536 0.258641 0.830971
vn 0.492536 0.258641 0.830971
vn 0.492536 0.258641 0.830971
vn 0.830971 0.258641 -0.492536
vn 0.830971 0.258641 -0.492536
vn 0.830972 0.258641 -0.492536
vn -0.492536 0.258641 -0.830971
vn -0.492536 0.258641 -0.830971
vn -0.492536 0.258641 -0.830971
vn 0.492536 0.258641 -0.830971
vn 0.492536 0.258641 -0.830971
vn 0.492536 0.258641 -0.830971
vn 0.830971 0.258641 0.492536
vn 0.830971 0.258641 0.492536
vn 0.830971 0.258641 0.492536
vn -0.492536 0.258641 0.830971
vn -0.492536 0.258641 0.830971
vn -0.492536 0.258641 0.830971
vn -0.830971 0.258641 -0.492536
vn -0.830971 0.258641 -0.492536
vn -0.830971 0.258641 -0.492536
s off
g Spike_Spikes
usemtl Spike_SpikesSG
f 2/51/1 61/52/2 1/53/3
f 3/1/4 61/2/5 4/3/6
f 6/6/7 61/7/8 5/8/9
f 7/56/10 61/57/11 8/58/12
f 9/4/13 61/2/14 3/1/15
f 10/54/16 61/52/17 2/51/18
f 11/9/19 61/7/20 6/6/21
f 12/59/22 61/57/23 7/56/24
f 8/58/25 61/57/26 11/60/27
f 5/8/28 61/7/29 10/10/30
f 1/53/31 61/52/32 9/55/33
f 4/3/34 61/2/35 12/5/36
f 14/61/37 62/62/38 13/63/39
f 15/11/40 62/12/41 16/13/42
f 18/16/43 62/17/44 17/18/45
f 19/66/46 62/67/47 20/68/48
f 21/14/49 62/12/50 15/11/51
f 22/64/52 62/62/53 14/61/54
f 23/19/55 62/17/56 18/16/57
f 24/69/58 62/67/59 19/66/60
f 20/68/61 62/67/62 23/70/63
f 17/18/64 62/17/65 22/20/66
f 13/63/67 62/62/68 21/65/69
f 16/13/70 62/12/71 24/15/72
f 26/71/73 63/72/74 25/73/75
f 27/21/76 63/22/77 28/23/78
f 30/26/79 63/27/80 29/28/81
f 31/76/82 63/77/83 32/78/84
f 33/24/85 63/22/86 27/21/87
f 34/74/88 63/72/89 26/71/90
f 35/29/91 63/27/92 30/26/93
f 36/79/94 63/77/95 31/76/96
f 32/78/97 63/77/98 35/80/99
f 29/28/100 63/27/101 34/30/102
f 25/73/103 63/72/104 33/75/105
f 28/23/106 63/22/107 36/25/108
f 38/81/109 64/82/110 37/83/111
f 39/31/112 64/32/113 40/33/114
f 42/36/115 64/37/116 41/38/117
f 43/86/118 64/87/119 44/88/120
f 45/34/121 64/32/122 39/31/123
f 46/84/124 64/82/125 38/81/126
f 47/39/127 64/37/128 42/36/129
f 48/89/130 64/87/131 43/86/132
f 44/88/133 64/87/134 47/90/135
f 41/38/136 64/37/137 46/40/138
f 37/83/139 64/82/140 45/85/141
f 40/33/142 64/32/143 48/35/144
f 50/91/145 65/92/146 49/93/147
f 51/41/148 65/42/149 52/43/150
f 54/46/151 65/47/152 53/48/153
f 55/96/154 65/97/155 56/98/156
f 57/44/157 65/42/158 51/41/159
f 58/94/160 65/92/161 50/91/162
f 59/49/163 65/47/164 54/46/165
f 60/99/166 65/97/167 55/96/168
f 56/98/169 65/97/170 59/100/171
f 53/48/172 65/47/173 58/50/174
f 49/93/175 65/92/176 57/95/177
f 52/43/178 65/42/179 60/45/180
